<svg xmlns="http://www.w3.org/2000/svg" viewBox="0 0 267.4 30.25"><defs><style>.cls-1{isolation:isolate;}.cls-2,.cls-3{fill:#51271a;}.cls-3{fill-rule:evenodd;opacity:0.45;}.cls-3,.cls-4{mix-blend-mode:multiply;}.cls-4{fill:#020202;opacity:0.2;}.cls-5{fill:#fff;}</style></defs><title>back_end-java</title><g class="cls-1"><g id="The_Classics" data-name="The Classics"><rect class="cls-2" width="267.4" height="30.25" rx="15.12" ry="15.12"/><path class="cls-3" d="M2420.37,2983.64H2301.79v30.25h118.58A15.12,15.12,0,1,0,2420.37,2983.64Z" transform="translate(-2168.09 -2983.64)"/><path class="cls-4" d="M2173,3006.47l14.83-13.13,14.83,13.13-8.22,7.28h4l6.22-5.51,6.22,5.51h4l-8.22-7.28,14.83-13.13,14.83,13.13-8.22,7.28h4l6.22-5.51,6.22,5.51h4l-8.22-7.28,14.83-13.13,14.83,13.13-8.22,7.28h4l6.22-5.51,6.22,5.51h4l-8.22-7.28,14.83-13.13,14.83,13.13-8.22,7.28h4l6.22-5.51,6,5.33a11.8,11.8,0,0,0,3-.91l-7-6.19,14.47-12.81v0.19l14.26,12.62-6.91,6.12a11.68,11.68,0,0,0,2.92,1l6-5.3,6.22,5.51h4l-8.22-7.28,14.83-13.13,14.83,13.13-8.22,7.28h4l6.22-5.51,6.22,5.51h4l-8.22-7.28,14.83-13.13,14.83,13.13-8.22,7.28h4l6.22-5.51,6.22,5.51h4l-8.22-7.28,14.83-13.13,11.91,10.54a14.94,14.94,0,0,0,.71-2.91l-10.61-9.39,5.06-4.48a15.22,15.22,0,0,0-2.28-1.52l-4.77,4.23-6.81-6h-4l8.81,7.8-14.83,13.13-14.83-13.13,8.81-7.8h-4l-6.81,6-6.81-6h-4l8.81,7.8-14.83,13.13-14.83-13.13,8.81-7.8h-4l-6.81,6-6.81-6h-4l8.81,7.8-14.83,13.13-14.83-13.13,8.81-7.79h-4l-6.24,5.52v0.19l-6.45-5.71h-4l8.81,7.8-14.83,13.13-14.83-13.13,8.81-7.8h-4l-6.81,6-6.81-6h-4l8.81,7.8L2272,3004.7l-14.83-13.13,8.81-7.8h-4l-6.81,6-6.81-6h-4l8.81,7.8-14.83,13.13-14.83-13.13,8.81-7.8h-4l-6.81,6-6.81-6h-4l8.81,7.8-14.83,13.13-14.83-13.13,8.81-7.8h-4l-6.81,6-6.66-5.9a14.91,14.91,0,0,0-3.15.75l7.81,6.92L2171,3004.7l-2.68-2.37a15.1,15.1,0,0,0,3.36,6.52l2.95,2.61a15,15,0,0,0,5.57,2.29h1Z" transform="translate(-2168.09 -2983.64)"/><path class="cls-5" d="M2245.06,2999.26c0,2.58-1.4,4.14-3.83,4.14s-3.83-1.57-3.4-4l1-.22c-0.29,2.16.47,3.26,2.41,3.26s2.84-1.24,2.84-3.42v-7.69h1v7.92Z" transform="translate(-2168.09 -2983.64)"/><path class="cls-5" d="M2255.14,2999.6h-5.62l-1.42,3.62H2247l4.72-11.88H2253l4.7,11.88h-1.08Zm-0.38-1-1.94-5-0.47-1.37h0l-0.43,1.31-2,5h4.86Z" transform="translate(-2168.09 -2983.64)"/><path class="cls-5" d="M2263.24,3003.22h-1.19l-4.57-11.88h1.1l3.4,9,0.67,2,0.67-1.94,3.4-9h1.1Z" transform="translate(-2168.09 -2983.64)"/><path class="cls-5" d="M2275.75,2999.6h-5.62l-1.42,3.62h-1.08l4.72-11.88h1.22l4.7,11.88h-1.08Zm-0.38-1-1.94-5-0.47-1.37h0l-0.43,1.31-2,5h4.86Z" transform="translate(-2168.09 -2983.64)"/><path class="cls-5" d="M2280.18,3004.48h-1l5.2-14.4h1Z" transform="translate(-2168.09 -2983.64)"/><path class="cls-5" d="M2295.86,2994.85c0,2.18-1.57,3.51-4,3.51h-3v4.86h-1v-11.88h4C2294.29,2991.34,2295.86,2992.67,2295.86,2994.85Zm-1.06,0c0-1.64-1-2.56-3.08-2.56h-2.84v5.11h2.84C2293.75,2997.41,2294.8,2996.49,2294.8,2994.85Z" transform="translate(-2168.09 -2983.64)"/><path class="cls-5" d="M2307.7,2991.34v11.88h-1v-5.56h-7.15v5.56h-1v-11.88h1v5.37h7.15v-5.37h1Z" transform="translate(-2168.09 -2983.64)"/><path class="cls-5" d="M2319.48,2994.85c0,2.18-1.57,3.51-4,3.51h-3v4.86h-1v-11.88h4C2317.91,2991.34,2319.48,2992.67,2319.48,2994.85Zm-1.06,0c0-1.64-1-2.56-3.08-2.56h-2.84v5.11h2.84C2317.37,2997.41,2318.41,2996.49,2318.41,2994.85Z" transform="translate(-2168.09 -2983.64)"/><path class="cls-5" d="M2321.49,3003a2.87,2.87,0,0,1-1.64,2.61l-0.58-.5a2.23,2.23,0,0,0,1.5-1.85l-0.05,0a0.49,0.49,0,0,1-.43.16,0.8,0.8,0,0,1-.77-0.86,0.92,0.92,0,0,1,.9-0.92A1.2,1.2,0,0,1,2321.49,3003Z" transform="translate(-2168.09 -2983.64)"/><path class="cls-5" d="M2331.19,3002.48a0.89,0.89,0,1,1-.9-0.9A0.85,0.85,0,0,1,2331.19,3002.48Z" transform="translate(-2168.09 -2983.64)"/><path class="cls-5" d="M2343.45,3003.22h-1.28l-6-9-1-1.75h0l0.05,1.6v9.16h-1v-11.88h1.28l6,9,1,1.78-0.05-1.6v-9.16h1v11.88Z" transform="translate(-2168.09 -2983.64)"/><path class="cls-5" d="M2355.67,3002.27v1h-8.44v-11.88h8.16v1h-7.13v4.41h5.62v1h-5.62v4.61h7.42Z" transform="translate(-2168.09 -2983.64)"/><path class="cls-5" d="M2366.51,2992.29h-4.29v10.93h-1v-10.93h-4.3v-1h9.62v1Z" transform="translate(-2168.09 -2983.64)"/></g></g></svg>