<svg id="Layer_1" xmlns="http://www.w3.org/2000/svg" viewBox="0 0 267.402 30.245"><style>.st0{fill-rule:evenodd;clip-rule:evenodd;fill:#ffcd05}.st1{fill:#f8e492}.st1,.st2{fill-rule:evenodd;clip-rule:evenodd}.st2{fill:#e1b724}</style><path class="st0" d="M252.28 30.245H15.122C6.805 30.245 0 23.44 0 15.123 0 6.805 6.805 0 15.123 0H252.28c8.317 0 15.123 6.805 15.123 15.123 0 8.317-6.806 15.122-15.124 15.122z"/><path class="st1" d="M11.937 15.123c0-4.366 1.886-8.303 4.87-11.07h-.134c-6.09 0-11.07 4.982-11.07 11.07s4.982 11.07 11.07 11.07h.135c-2.985-2.767-4.87-6.704-4.87-11.07z"/><path class="st2" d="M252.25 0H133.67v30.245h118.58c8.317 0 15.123-6.805 15.123-15.123C267.373 6.805 260.567 0 252.25 0z"/><path d="M126.878 11.226l-.882.702c-.63-1.675-1.71-2.36-3.602-2.36-2.088 0-3.295 1.027-3.295 2.36 0 1.26.846 1.908 3.654 2.395 3.15.522 4.268 1.477 4.268 3.26 0 1.962-1.8 3.276-4.483 3.276-2.504 0-4.27-1.063-4.935-2.792l.883-.702c.52 1.64 1.98 2.54 4.068 2.54 1.98 0 3.403-.81 3.403-2.27 0-1.188-.865-1.873-3.512-2.323-3.295-.558-4.43-1.494-4.43-3.277 0-1.836 1.64-3.42 4.357-3.42 2.198 0 3.71.863 4.503 2.61zM139.694 22.497l.36.937c-.54.486-1.53.756-2.413.756-1.764 0-3.294-.937-3.437-3.35-3.115-.197-5.042-2.502-5.042-6.103 0-3.763 2.107-6.122 5.475-6.122s5.474 2.358 5.474 6.122c0 3.583-1.91 5.888-4.988 6.104.144 1.8 1.206 2.324 2.54 2.324.807 0 1.582-.217 2.032-.667zm-5.06-2.593c2.72 0 4.41-1.962 4.41-5.167s-1.69-5.167-4.41-5.167-4.41 1.962-4.41 5.167 1.692 5.167 4.41 5.167zM151.213 19.724v.954h-8.066V8.795h1.026v10.93h7.04z"/></svg>