<svg id="Layer_1" xmlns="http://www.w3.org/2000/svg" viewBox="0 0 267.402 30.245"><style>.st0{fill-rule:evenodd;clip-rule:evenodd;fill:#bf2026}.st1{fill:#aa1f24}.st1,.st2{fill-rule:evenodd;clip-rule:evenodd}.st2{opacity:.65;fill:#ed5d6f}.st3{fill:#FFF}</style><path class="st0" d="M252.28 30.245H15.122C6.805 30.245 0 23.44 0 15.123 0 6.805 6.805 0 15.123 0H252.28c8.317 0 15.123 6.805 15.123 15.123 0 8.317-6.806 15.122-15.124 15.122z"/><path class="st1" d="M252.28 0H133.7v30.245h118.58c8.316 0 15.122-6.805 15.122-15.123C267.402 6.805 260.597 0 252.28 0z"/><path class="st2" d="M133.73 7.37H17.025c-9.255 0-11.39 7.753-11.39 7.753 0-11.752 11.39-11.752 11.39-11.752H133.73v4z"/><path class="st3" d="M123.124 21.86c-3.295 0-5.42-2.36-5.42-6.123s2.143-6.12 5.4-6.12c2.378 0 3.908.99 4.61 2.897l-1.008.468c-.56-1.603-1.692-2.413-3.53-2.413-2.645 0-4.41 1.944-4.41 5.167 0 3.205 1.71 5.168 4.357 5.168 1.836 0 3.205-.918 3.745-2.63l1.008.38c-.7 2.033-2.466 3.204-4.752 3.204zM138.767 12.226l-.882.702c-.63-1.675-1.71-2.36-3.6-2.36-2.09 0-3.297 1.028-3.297 2.36 0 1.26.847 1.908 3.655 2.395 3.15.522 4.268 1.477 4.268 3.26 0 1.962-1.8 3.276-4.482 3.276-2.503 0-4.268-1.063-4.934-2.792l.883-.702c.52 1.64 1.98 2.54 4.068 2.54 1.98 0 3.403-.812 3.403-2.27 0-1.19-.864-1.873-3.51-2.323-3.296-.56-4.43-1.494-4.43-3.277 0-1.836 1.638-3.42 4.356-3.42 2.198 0 3.71.863 4.503 2.61zM149.998 12.226l-.882.702c-.63-1.675-1.71-2.36-3.602-2.36-2.088 0-3.295 1.028-3.295 2.36 0 1.26.846 1.908 3.654 2.395 3.15.522 4.268 1.477 4.268 3.26 0 1.962-1.8 3.276-4.483 3.276-2.504 0-4.27-1.063-4.935-2.792l.883-.702c.52 1.64 1.98 2.54 4.068 2.54 1.98 0 3.403-.812 3.403-2.27 0-1.19-.865-1.873-3.512-2.323-3.295-.56-4.43-1.494-4.43-3.277 0-1.836 1.64-3.42 4.357-3.42 2.198 0 3.71.863 4.503 2.61z"/></svg>