<svg xmlns="http://www.w3.org/2000/svg" viewBox="0 0 267.4 30.25"><defs><style>.cls-1{isolation:isolate;}.cls-2,.cls-3{fill:#51271a;}.cls-3{fill-rule:evenodd;opacity:0.45;}.cls-3,.cls-4{mix-blend-mode:multiply;}.cls-4{fill:#020202;opacity:0.2;}.cls-5{fill:#fff;}</style></defs><title>fed_html</title><g class="cls-1"><g id="The_Classics" data-name="The Classics"><rect class="cls-2" width="267.4" height="30.25" rx="15.12" ry="15.12"/><path class="cls-3" d="M2420.68,2980.53H2302.1v30.25h118.58A15.12,15.12,0,1,0,2420.68,2980.53Z" transform="translate(-2168.4 -2980.53)"/><path class="cls-4" d="M2173.36,3003.36l14.83-13.13,14.83,13.13-8.22,7.28h4l6.22-5.51,6.22,5.51h4l-8.22-7.28,14.83-13.13,14.83,13.13-8.22,7.28h4l6.22-5.51,6.22,5.51h4l-8.22-7.28,14.83-13.13,14.83,13.13-8.22,7.28h4l6.22-5.51,6.22,5.51h4l-8.22-7.28,14.83-13.13,14.83,13.13-8.22,7.28h4l6.22-5.51,6,5.33a11.8,11.8,0,0,0,3-.91l-7-6.19,14.47-12.81v0.19l14.26,12.62-6.91,6.12a11.68,11.68,0,0,0,2.92,1l6-5.3,6.22,5.51h4l-8.22-7.28,14.83-13.13,14.83,13.13-8.22,7.28h4l6.22-5.51,6.22,5.51h4l-8.22-7.28,14.83-13.13,14.83,13.13-8.22,7.28h4l6.22-5.51,6.22,5.51h4l-8.22-7.28,14.83-13.13,11.91,10.54a14.93,14.93,0,0,0,.71-2.91l-10.61-9.39L2430,2984a15.22,15.22,0,0,0-2.28-1.52l-4.77,4.23-6.81-6h-4l8.81,7.8-14.83,13.13-14.83-13.13,8.81-7.8h-4l-6.81,6-6.81-6h-4l8.81,7.8-14.83,13.13-14.83-13.13,8.81-7.8h-4l-6.81,6-6.81-6h-4l8.81,7.8-14.83,13.13-14.83-13.13,8.81-7.79h-4l-6.24,5.52v0.19l-6.45-5.71h-4l8.81,7.8L2306,3001.59l-14.83-13.13,8.81-7.8h-4l-6.81,6-6.81-6h-4l8.81,7.8-14.83,13.13-14.83-13.13,8.81-7.8h-4l-6.81,6-6.81-6h-4l8.81,7.8-14.83,13.13-14.83-13.13,8.81-7.8h-4l-6.81,6-6.81-6h-4l8.81,7.8L2205,3001.59l-14.83-13.13,8.81-7.8h-4l-6.81,6-6.66-5.9a14.91,14.91,0,0,0-3.15.75l7.81,6.92-14.83,13.13-2.68-2.37a15.1,15.1,0,0,0,3.36,6.52l2.95,2.61a15,15,0,0,0,5.57,2.29h1Z" transform="translate(-2168.4 -2980.53)"/><path class="cls-5" d="M2288.08,2989.71v11.88h-1V2996h-7.15v5.56h-1v-11.88h1v5.37h7.15v-5.37h1Z" transform="translate(-2168.4 -2980.53)"/><path class="cls-5" d="M2300,2990.67h-4.29v10.93h-1v-10.93h-4.3v-1H2300v1Z" transform="translate(-2168.4 -2980.53)"/><path class="cls-5" d="M2313.48,3001.59h-1v-8.53l0.11-2.38-4.25,10.91h-0.92l-4.23-10.91h0l0.11,2.38v8.53h-1v-11.88h1.55l3.37,8.59,0.65,2.09h0l0.67-2.07,3.35-8.61h1.57v11.88Z" transform="translate(-2168.4 -2980.53)"/><path class="cls-5" d="M2325.32,3000.64v1h-8.07v-11.88h1v10.93h7Z" transform="translate(-2168.4 -2980.53)"/></g></g></svg>