<svg xmlns="http://www.w3.org/2000/svg" viewBox="0 0 267.4 43.9"><path fill="#F9F6E5" d="M252.3 30.2H15.1C6.8 30.2 0 23.4 0 15.1S6.8 0 15.1 0h237.2c8.3 0 15.1 6.8 15.1 15.1s-6.8 15.1-15.1 15.1z"/><path fill="#E2DECF" d="M252.2 0H133.7v30.2h118.6c8.3 0 15.1-6.8 15.1-15.1S260.6 0 252.2 0z"/><path fill="#E2DECF" d="M246.1 26.9c0 3.1 0 5.4-.1 6.7-.1 1.3-.5 3.2-.6 4-.2 1.2-.8 3-.1 4.5 1.1 2.3 4 2.4 4.9 0 .5-1.3-.1-3.3-.3-4.8-.1-.8-.4-2.4-.5-3.6-.1-1.3-.2-3.5-.2-6.8M238.8 26.9c0 1.8 0 3.3-.1 4-.1.8-.3 1.9-.4 2.4-.1.7-.5 1.8-.1 2.7.6 1.4 2.4 1.4 3 0 .3-.8-.1-2-.2-2.9-.1-.5-.3-1.4-.3-2.1-.1-.8-.1-2.1-.1-4.1"/><path d="M90.4 16.6c0 2.6-1.4 4.1-3.8 4.1-2.6 0-3.8-1.6-3.4-4l1-.2c-.3 2.2.5 3.3 2.4 3.3 2.1 0 2.8-1.2 2.8-3.4V8.7h1v7.9zM100.5 17h-5.6l-1.4 3.6h-1.1l4.7-11.9h1.2l4.7 11.9h-1.1l-1.4-3.6zm-.4-1l-1.9-5-.5-1.4-.5 1.4-2 5h4.9zM108.6 20.6h-1.2l-4.6-11.9h1.1l3.4 9 .7 2 .7-1.9 3.4-9h1.1l-4.6 11.8zM121.1 17h-5.6l-1.4 3.6H113l4.7-11.9h1.2l4.7 11.9h-1.1l-1.4-3.6zm-.4-1l-1.9-5-.5-1.4-.4 1.3-2 5h4.8zM133.9 11.1l-.9.7c-.6-1.7-1.7-2.4-3.6-2.4-2.1 0-3.3 1-3.3 2.4 0 1.3.8 1.9 3.7 2.4 3.2.5 4.3 1.5 4.3 3.3 0 2-1.8 3.3-4.5 3.3-2.5 0-4.3-1.1-4.9-2.8l.9-.7c.5 1.6 2 2.5 4.1 2.5 2 0 3.4-.8 3.4-2.3 0-1.2-.9-1.9-3.5-2.3-3.3-.6-4.4-1.5-4.4-3.3 0-1.8 1.6-3.4 4.4-3.4 2 0 3.6.9 4.3 2.6zM141.6 20.8c-3.3 0-5.4-2.4-5.4-6.1 0-3.8 2.1-6.1 5.4-6.1 2.4 0 3.9 1 4.6 2.9l-1 .5c-.6-1.6-1.7-2.4-3.5-2.4-2.6 0-4.4 1.9-4.4 5.2 0 3.2 1.7 5.2 4.4 5.2 1.8 0 3.2-.9 3.7-2.6l1 .4c-.7 1.8-2.5 3-4.8 3zM153.5 15.5h-3.4v5.1h-1V8.7h4.4c2.4 0 3.9 1.3 3.9 3.4 0 1.7-1.1 2.9-2.8 3.3l3.4 5.2h-1.2l-3.3-5.1zm-3.4-1h3.4c1.9 0 2.9-.9 2.9-2.4 0-1.6-1-2.4-2.9-2.4h-3.4v4.8zM161.7 20.6h-1V8.7h1v11.9zM173.5 12.2c0 2.2-1.6 3.5-4 3.5h-3v4.9h-1V8.7h4c2.5 0 4 1.3 4 3.5zm-1 0c0-1.6-1-2.6-3.1-2.6h-2.8v5.1h2.8c2 .1 3.1-.8 3.1-2.5zM184.3 9.7H180v10.9h-1V9.7h-4.3v-1h9.6v1z"/></svg>