<svg xmlns="http://www.w3.org/2000/svg" viewBox="0 0 267.4 30.25"><title>fs_apache</title><g data-name="The Classics" style="isolation:isolate"><rect width="267.4" height="30.25" rx="15.12" ry="15.12" fill="#b3cc57"/><path d="M254.81 27.17H12.59A12.62 12.62 0 0 1 .02 14.85v.27a15.17 15.17 0 0 0 15.12 15.12H252.3a15.17 15.17 0 0 0 15.12-15.12v-.27a12.62 12.62 0 0 1-12.61 12.32z" fill="#647d37" fill-rule="evenodd"/><path d="M15.12 0a15 15 0 0 0-3.87.52c10.05 12.91 61 22.73 122.45 22.73S246.09 13.43 256.15.52a15 15 0 0 0-3.87-.52H15.12z" fill="#f4e364" fill-rule="evenodd"/><path d="M133.7 15.12c35.76 0 65.95-6.38 75.69-15.12H58.01c9.74 8.74 39.93 15.12 75.69 15.12z" fill="#f6ecb4" fill-rule="evenodd"/><path d="M252.28 0H133.7v30.25h118.58a15.125 15.125 0 1 0 0-30.25z" fill="#b3cc57" fill-rule="evenodd" opacity=".35" style="mix-blend-mode:multiply"/><path d="M107.93 16.23h-5.62l-1.42 3.62h-1.08l4.72-11.88h1.17l4.7 11.88h-1.08zm-.38-1l-1.94-5-.47-1.37-.43 1.31-2 5h4.86zM120.7 11.48c0 2.18-1.57 3.51-4 3.51h-3v4.86h-1V7.97h4c2.46 0 4 1.33 4 3.51zm-1.06 0c0-1.64-1-2.56-3.08-2.56h-2.86v5.11h2.84c2.08 0 3.16-.92 3.16-2.55zM129.2 16.23h-5.62l-1.42 3.62h-1.08l4.72-11.88h1.22l4.7 11.88h-1.08zm-.38-1l-1.94-5-.47-1.37-.43 1.31-2 5h4.86zM138.35 20.03c-3.29 0-5.42-2.36-5.42-6.12s2.14-6.12 5.4-6.12c2.38 0 3.91 1 4.61 2.9l-1 .47a3.36 3.36 0 0 0-3.53-2.41c-2.65 0-4.41 1.94-4.41 5.17s1.71 5.17 4.36 5.17a3.66 3.66 0 0 0 3.75-2.63l1 .38a4.74 4.74 0 0 1-4.76 3.19zM154.98 7.97v11.88h-1v-5.56h-7.15v5.56h-1V7.97h1v5.37h7.15V7.97h1zM167.18 18.9v1h-8.48V8.02h8.16v1h-7.13v4.41h5.62v1h-5.62v4.47h7.42z" fill="#231f20"/></g></svg>