<svg xmlns="http://www.w3.org/2000/svg" viewBox="0 0 267.4 30.57"><title>fs_amazon</title><g data-name="The Classics" style="isolation:isolate"><rect y=".16" width="267.4" height="30.25" rx="15.12" ry="15.12" fill="#536e32"/><path d="M252.24.16H133.7v30.25h118.54a15.125 15.125 0 0 0 0-30.25z" fill="#536e32" fill-rule="evenodd" opacity=".45" style="mix-blend-mode:multiply"/><path d="M105.72 17.61h-5.62l-1.42 3.62H97.6l4.72-11.88h1.22l4.7 11.88h-1.08zm-.38-1l-1.94-5-.47-1.37-.43 1.31-2 5h4.86zM121.66 21.23h-1v-8.54l.11-2.38-4.25 10.91h-.92l-4.23-10.91.11 2.38v8.54h-1V9.35h1.55l3.37 8.59.65 2.09.67-2.07 3.35-8.61h1.57v11.88zM132.05 17.61h-5.62l-1.42 3.62h-1.08l4.72-11.88h1.22l4.7 11.88h-1.08zm-.38-1l-1.94-5-.47-1.37-.43 1.31-2 5h4.86zM144.99 20.27v1h-9.22v-.92l7.72-10h-7.56v-1h8.79v.92l-7.74 10h8zM157.59 15.29c0 3.76-2.11 6.12-5.47 6.12s-5.47-2.36-5.47-6.12 2.11-6.12 5.47-6.12 5.47 2.35 5.47 6.12zm-9.88 0c0 3.21 1.69 5.17 4.41 5.17s4.41-2 4.41-5.17-1.69-5.17-4.41-5.17-4.41 1.96-4.41 5.17zM169.81 21.23h-1.28l-6-9-1-1.75.05 1.6v9.16h-1V9.36h1.28l6 9 1 1.78-.05-1.6V9.38h1v11.88z" fill="#fff"/><g opacity=".2" style="mix-blend-mode:multiply" fill="#020202"><path d="M83.13 30.44a3.84 3.84 0 0 0 2.58-.19h-2.59c.01.06 0 .12.01.19zM2.24 14.97c0-.36 0-.71.05-1.06a6.43 6.43 0 0 0-.05 1.06zM227.01 24.64c2.68-.56 5.85-.69 8.26-1.49 1.23-5.5-10.93-3.89-8.26 1.49zM202.58 18.77c1.61 0 5 0 6.94 1 .38-1.2 1.89-1.42 1.26-3.52-2.81-1.28-8.05-1.74-8.2 2.52zM242.32 8.25c3.26.46 1.48 4.25 1 6.37 3.59.16 3.71-3.15 3.92-6.37-.71-1.28-4.55-2.59-4.92 0zM188.24 26.97c-1.73 1-2.11 2.14-1.65 3.24h6c-1.92-.53-4.06-1.11-4.35-3.24zM190.97-.03h-6.79c1.79.88 3.37 2 5.15 2.88 2.11-.73 2.34-1.88 1.64-2.88zM213.1 7.49c4.32-.18 5-4.64 3.57-7.5h-5.26c.9.53 2.37.48 3.16 1.12.99 1.86-.61 4.79-1.47 6.38zM163.59 9.6c1.76-3.43-3.63-6.42-6.11-3.55 2.76.38 2.61 4.03 6.11 3.55zM126.24 9.02c.81.82 2.88.39 4.41.49.59-3.3-3.9-2.54-4.41-.49zM217.58 12.1c-.44 2.86 2.71 5.53 3.92 2.45-1.03-1.09-1.63-2.58-3.92-2.45zM142.92 16.4c1.81 1.09 2.36 3.61 5.59 3.09.89-3.67-4.67-6.45-5.59-3.09zM142.91 8.97c5.09.28 6.61-5.08 5.22-8.94h-3.43a19.51 19.51 0 0 1-1.79 8.94zM192.03 12.06c2.23-.84 6.17.13 6.79-3-1.58-2.92-7.85-.09-6.79 3zM155.46 26.77c4.14-1.85 7.33.2 11.35-1.16-.75-6.12-11.01-4.06-11.35 1.16zM219.24 24.8c-2 1.33-4.24 2.38-4.49 5.45h4.66c.44-2.01 1.25-3.99-.17-5.45zM191.53 23.22c1.39-1.71 3.79-2.42 3.92-5.39-3.56-1.98-8.06 3.77-3.92 5.39zM96.68 5.24c1.17.62 1.81 1.79 3.92 1.47 1.08-.42 2.32-3.2 1-4.41.15.59-1.42 1.69-1.47.49a10.62 10.62 0 0 0 .4-2.79H97l-.31.33v4.9zM171.77 14.18c.77 1.24 3.33 3.19 4.55 2.18-.58.19-1.77-1.31-.58-1.44 2.31-.17 3.09 1.4 5.47 1.14 2.2-5.09-9.43-8.41-9.44-1.88zM263.07 5.2c-1 .67-1.69 5.72.82 5.35 1.88-1.06 1.75-5.2-.82-5.35zM60 7.66c-.36-2.47-.35-5.32-.83-7.66h-2.83c-2.1 2.45-.65 9.48 3.66 7.66zM251.1 18.22c-.26.7-1.88.19-1.9 1.1.27 2.27 3.65 4.73 6.72 5.48 3.75-3.28-3.02-4.72-4.82-6.58zM86.07 25.04c-.19 2.53-3.08 2.35-2.95 5.2h2.59c2.35-1.06 3.03-4.43.36-5.2zM262.77 17.55c-.19 2.58-3.23 2.33-2.94 5.39 4.21 1.03 6.41-4.39 2.94-5.39zM38.3 13.6c1.26-3.48 1.38-8.1 4.9-9.32-5.05-4.82-12.12 8.01-4.9 9.32zM82.64 3.57c-3.82.17-7.06 3.3-6.37 6.37 2.06-2.18 5.48-2.97 6.37-6.37zM230.02 2.81c0 .6-.08 1.17-.92 1 .53 3.41 3.82 3.7 7.12 4 1.02-3.68-2.81-4.74-6.2-5zM109.14 8.25c3.26.46 1.48 4.25 1 6.37 3.59.16 3.71-3.15 3.92-6.37-.72-1.28-4.55-2.59-4.92 0zM69.35 23.24c-4.14-1.45-3.26 5.35-6.14 7h4.39a10.76 10.76 0 0 0 1.75-7zM255.8 9.15c1-2.39 2.66-4.2 3.92-6.37-1.9-6.53-8.16 3.84-3.92 6.37zM97.94 23.85c.05 2.07 2.75 1.5 3.92 2.45.59 1.11.26 2.59-.28 3.95h2.66c1.59-3.68-1.53-9.86-6.3-6.4zM47.99 28.7c-.48-1.84-1.49.79-2.07-.25l4.25-3.33-.93-1.15c-2.86.08-8.76 2.6-7.31 6.28h4.84a5.92 5.92 0 0 0 1.22-1.55zM47.99 12.72c-.44 2.86 2.71 5.53 3.92 2.45-1.03-1.09-1.67-2.61-3.92-2.45zM58.48 17.74c1.11.83-.16 1.38.44 2.15 1.71.26 3.37 1 5.29-.41.71-2.74-3.72-3.25-5.73-1.74zM14.07 7.7c4.62 1.83 6.92-4.51 4.8-7.7h-2.19c.31 3.66.18 6.26-2.61 7.7zM7.09 16.52c-.87-.76-1.89-1.38-1.47-3.43.38-1.58 2.22-1.71 3.43-2.45-3.92-3-6.35.23-6.75 3.24 0 .35 0 .7-.05 1.06.08 2.37 1.58 4.08 4.84 1.58zM19.81 23.11c0-3 2.41-3.47 2.94-5.88-4.51.21-7 4.55-5.39 9.32 3 2.11 8.71 1.77 8.34-3.43-1.26-.73-4.46 2.07-5.89-.01zM125.94 22.04c1 2.24 2.74 3.8 2.45 7.35-.52 1.41-2.25.38-2.79.85h5.58c.88-3.55-.23-8.67-5.24-8.2zM75.33 22.19c1.88.87 5.72.77 6.83-1.62a5.29 5.29 0 0 1-3.74-.8c.85-.48.36-1.12.55-1.68 2-2 7.07-1.68 6.78-4.07-4.21-.15-14.11 1.03-10.42 8.17z"/></g></g></svg>