<svg xmlns="http://www.w3.org/2000/svg" viewBox="0 0 267.4 30.25"><title>fs_c</title><g data-name="The Classics" style="isolation:isolate"><rect width="267.4" height="30.25" rx="15.12" ry="15.12" fill="#a8ce60"/><path d="M252.28 0H133.7v30.25h118.58a15.125 15.125 0 0 0 0-30.25z" fill="#a8ce60" fill-rule="evenodd" opacity=".45" style="mix-blend-mode:multiply"/><g opacity=".1" style="mix-blend-mode:multiply" fill="#020202"><path d="M24.64 6.43a23.07 23.07 0 0 1-11.73-2.84 46.25 46.25 0 0 0-4.54-2 15.25 15.25 0 0 0-7.32 8 24 24 0 0 1 7.71 2.57 35.22 35.22 0 0 0 31.77 0 25.64 25.64 0 0 1 23.46 0 35.22 35.22 0 0 0 31.77 0 25.63 25.63 0 0 1 23.46 0 35.22 35.22 0 0 0 31.77 0 25.63 25.63 0 0 1 23.46 0 35.22 35.22 0 0 0 31.77 0 25.64 25.64 0 0 1 23.46 0 35.23 35.23 0 0 0 31.77 0 29.26 29.26 0 0 1 5.12-2 15.23 15.23 0 0 0-6.37-7.93c-1.05.44-2 .9-2.9 1.33a25.64 25.64 0 0 1-23.46 0 32.52 32.52 0 0 0-11.86-3.59h-8.06a32.52 32.52 0 0 0-11.86 3.59 25.63 25.63 0 0 1-23.46 0 32.52 32.52 0 0 0-11.85-3.59h-8.05a32.5 32.5 0 0 0-11.85 3.59 25.64 25.64 0 0 1-23.46 0 32.52 32.52 0 0 0-11.86-3.59h-8.06a32.52 32.52 0 0 0-11.85 3.59 25.63 25.63 0 0 1-23.46 0A32.52 32.52 0 0 0 56.31-.03h-8.06a32.54 32.54 0 0 0-11.86 3.59 23.07 23.07 0 0 1-11.75 2.87z"/><path d="M245.57 22.66a23.08 23.08 0 0 1-11.73-2.84 35.22 35.22 0 0 0-31.77 0 25.63 25.63 0 0 1-23.46 0 35.21 35.21 0 0 0-31.77 0 25.64 25.64 0 0 1-23.46 0 35.21 35.21 0 0 0-31.77 0 25.63 25.63 0 0 1-23.46 0 35.21 35.21 0 0 0-31.77 0 25.63 25.63 0 0 1-23.46 0A32.4 32.4 0 0 0 .07 16.14a15.12 15.12 0 0 0 6.2 11.19c.84.35 1.65.74 2.49 1.14s1.95.93 3.07 1.4a15 15 0 0 0 3.31.38H36.5c1.52-.57 2.82-1.2 4-1.78a25.64 25.64 0 0 1 23.46 0c1.2.58 2.51 1.2 4 1.78H91.7c1.51-.57 2.82-1.2 4-1.78a25.63 25.63 0 0 1 23.46 0c1.2.58 2.51 1.2 4 1.78h23.72c1.52-.57 2.82-1.2 4-1.78a25.63 25.63 0 0 1 23.46 0c1.2.58 2.51 1.2 4 1.78h23.72c1.51-.57 2.82-1.2 4-1.78a25.64 25.64 0 0 1 23.46 0c1.2.58 2.51 1.2 4 1.78h18.58a15.17 15.17 0 0 0 15.05-13.79 33.32 33.32 0 0 0-10 3.36 23.09 23.09 0 0 1-11.58 2.84z"/></g><path d="M128.17 21.24c-3.29 0-5.42-2.36-5.42-6.12S124.89 9 128.15 9c2.38 0 3.91 1 4.61 2.9l-1 .47a3.36 3.36 0 0 0-3.53-2.41c-2.65 0-4.41 1.95-4.41 5.17s1.71 5.17 4.36 5.17a3.66 3.66 0 0 0 3.75-2.63l1 .38a4.74 4.74 0 0 1-4.76 3.19zM142.17 13.39l-.54 3.35h2.32v.79h-2.45l-.56 3.53h-.9l.58-3.53h-3.19l-.58 3.53h-.88l.58-3.53h-2.34v-.79h2.49l.54-3.35h-2.3v-.79h2.43l.54-3.42h.9l-.56 3.42h3.19l.56-3.42h.88l-.54 3.42h2.36v.79h-2.48zm-.88 0h-3.19l-.54 3.35h3.19z" fill="#231f20"/></g></svg>