<svg xmlns="http://www.w3.org/2000/svg" viewBox="0 0 267.4 30.25"><title>fs_css</title><g data-name="The Classics" style="isolation:isolate"><rect width="267.4" height="30.25" rx="15.12" ry="15.12" fill="#bf2026"/><path d="M252.28 0H133.7v30.25h118.58a15.125 15.125 0 1 0 0-30.25z" fill="#bf2026" fill-rule="evenodd" opacity=".45" style="mix-blend-mode:multiply"/><path d="M133.73 7.37H17.02c-9.25 0-11.39 7.75-11.39 7.75 0-11.75 11.39-11.75 11.39-11.75h116.71v4z" fill="#ed5d6f" fill-rule="evenodd" opacity=".65" style="mix-blend-mode:screen"/><path d="M123.12 21.86c-3.29 0-5.42-2.36-5.42-6.12s2.14-6.12 5.4-6.12c2.38 0 3.91 1 4.61 2.9l-1 .47a3.36 3.36 0 0 0-3.53-2.41c-2.65 0-4.41 1.94-4.41 5.17s1.71 5.17 4.36 5.17a3.66 3.66 0 0 0 3.75-2.63l1 .38a4.74 4.74 0 0 1-4.76 3.19zM138.76 12.22l-.88.7a3.34 3.34 0 0 0-3.6-2.36c-2.09 0-3.3 1-3.3 2.36s.85 1.91 3.66 2.39c3.15.52 4.27 1.48 4.27 3.26 0 2-1.8 3.28-4.48 3.28-2.5 0-4.27-1.06-4.93-2.79l.88-.7c.52 1.64 2 2.54 4.07 2.54s3.4-.81 3.4-2.27c0-1.19-.86-1.87-3.51-2.32-3.29-.56-4.43-1.49-4.43-3.28s1.64-3.42 4.36-3.42a4.48 4.48 0 0 1 4.49 2.61zM150 12.22l-.88.7a3.34 3.34 0 0 0-3.6-2.36c-2.09 0-3.29 1-3.29 2.36s.85 1.91 3.66 2.39c3.15.52 4.27 1.48 4.27 3.26 0 2-1.8 3.28-4.48 3.28-2.5 0-4.27-1.06-4.93-2.79l.88-.7c.52 1.64 2 2.54 4.07 2.54s3.4-.81 3.4-2.27c0-1.19-.86-1.87-3.51-2.32-3.29-.56-4.43-1.49-4.43-3.28s1.64-3.42 4.36-3.42a4.48 4.48 0 0 1 4.48 2.61z" fill="#fff"/></g></svg>