<svg xmlns="http://www.w3.org/2000/svg" viewBox="0 0 267.4 30.25"><title>fs_django</title><g data-name="The Classics" style="isolation:isolate"><rect width="267.4" height="30.25" rx="15.12" ry="15.12" fill="#f7f2e7"/><path d="M66.87 15.13c0 5.48 2.89 10.63 8 15.12h115.64c5.09-4.49 8-9.65 8-15.12s-2.89-10.63-8-15.12H74.85c-5.09 4.49-7.98 9.65-7.98 15.12z" fill="#fabc18" fill-rule="evenodd" opacity=".75"/><path d="M251.95 0H133.37v30.25h118.58a15.125 15.125 0 0 0 0-30.25z" fill="#f7f2e7" fill-rule="evenodd" style="mix-blend-mode:multiply"/><path d="M108.78 14.73c0 3.89-2.16 6-5.94 6h-3.76V8.86h3.76c3.78 0 5.94 2.07 5.94 5.87zm-1.08 0c0-3.13-1.71-4.92-4.77-4.92h-2.83v10h2.83c3.06-.02 4.77-1.84 4.77-5.08zM117.92 16.78c0 2.58-1.4 4.14-3.83 4.14s-3.83-1.57-3.4-4l1-.22c-.29 2.16.47 3.26 2.41 3.26s2.84-1.24 2.84-3.42V8.85h1v7.92zM128 17.13h-5.62l-1.42 3.62h-1.08l4.72-11.88h1.22l4.7 11.88h-1.08zm-.38-1l-1.94-5-.47-1.37-.43 1.31-2 5h4.86zM141.97 20.74h-1.28l-6-9-1-1.75.05 1.6v9.16h-1V8.86h1.28l6 9 1 1.78-.05-1.6V8.88h1v11.88zM155.24 14.89v5.85h-.79V18.8a4.11 4.11 0 0 1-4 2.13c-3.31 0-5.4-2.36-5.4-6.12s2.18-6.12 5.44-6.12c2.41 0 3.91.94 4.7 2.86l-.92.5a3.61 3.61 0 0 0-3.78-2.41c-2.61 0-4.37 2-4.37 5.17s1.6 5.17 4.38 5.17c2.56 0 3.85-1.64 3.85-3.51v-.61h-4v-1h4.92zM168.68 14.8c0 3.76-2.11 6.12-5.47 6.12s-5.47-2.36-5.47-6.12 2.11-6.12 5.47-6.12 5.47 2.36 5.47 6.12zm-9.88 0c0 3.21 1.69 5.17 4.41 5.17s4.41-2 4.41-5.17-1.69-5.17-4.41-5.17-4.41 1.97-4.41 5.17z" fill="#231f20"/></g></svg>