<svg xmlns="http://www.w3.org/2000/svg" viewBox="0 0 267.4 30.25"><title>fs_express</title><g data-name="The Classics" style="isolation:isolate"><rect width="267.4" height="30.25" rx="15.12" ry="15.12" fill="#6d3526"/><path d="M252.28 0H133.7v30.21h118.58a15.12 15.12 0 1 0 0-30.21z" fill="#6d3526" fill-rule="evenodd" opacity=".45" style="mix-blend-mode:multiply"/><g opacity=".2" style="mix-blend-mode:multiply" fill="#020202"><path d="M18.2 6.49l2.74.58 2.84.6q2.87.58 5.86 1.15c3.7.68 8 1.45 12.47 1.95 2.36.26 4.53.43 6.61.53 1.46.07 3 .1 4.59.1h2.23a99.72 99.72 0 0 0 14-1.34l.9-.15 1.75-.32.88-.17c.9-.18 1.8-.38 2.7-.57l.81-.18c2.23-.5 4.52-1 7-1.64l3.36-.82c3.5-.86 7.11-1.76 10.7-2.46 2.62-.52 4.94-.88 7.11-1.13 1-.12 2.17-.22 3.57-.31 1-.05 2-.08 3.11-.08h1.81l1.29.07.89.08c1.2.12 2.37.29 3.49.51a54.73 54.73 0 0 1 6.92 1.83c3.42 1.12 6.86 2.53 10.2 3.88l3.56 1.44a78.14 78.14 0 0 0 14.54 4.5 55.36 55.36 0 0 0 10 .87c1.66 0 3.39-.07 5.14-.19a123.47 123.47 0 0 0 14.35-2.05c2.26-.44 4.48-.9 6.68-1.35s4.54-.94 6.76-1.36 4.36-.8 6.44-1.12c1.06-.16 2.11-.31 3.14-.44l1.55-.18 1.52-.15 1.59-.12.94-.05h.56c.81 0 1.62-.06 2.42-.08h1c2 0 3.82.05 5.49.15 2 .1 3.91.29 5.74.46 2.21.24 4 .46 5.55.69 5.09.72 9.82 1.58 14.39 2.42 1.9.35 3.75.68 5.52 1l14.44 2.57v-.45a15 15 0 0 0-1.48-6.46l-11.83-2.13q-4.48-.81-9.52-1.67c-2.86-.49-6.67-1.12-10.69-1.65-3.17-.42-7.38-.91-11.85-1.08a83.25 83.25 0 0 0-4-.09h-2.92c-.89 0-1.79.06-2.69.13h-.56c-.36 0-.72 0-1.1.08l-1.6.15a167.33 167.33 0 0 0-20.26 3.78c-2.13.49-4.27 1-6.42 1.44a119.93 119.93 0 0 1-13.67 2.26c-2.07.2-4.09.3-6 .3a49.16 49.16 0 0 1-7.83-.6 73.4 73.4 0 0 1-13.71-3.94l-6.94-2.64c-2.84-1.08-5-1.86-7.15-2.52l-1.86-.55h-29.6c-3.29.7-6.53 1.52-9.67 2.32l-3.35.84c-2 .51-4.46 1.09-6.89 1.56-1.19.24-2.39.43-3.41.59l-.85.13-1.7.23-.84.09c-2.44.25-5 .37-7.71.37-1.8 0-3.69-.06-5.64-.17-2.37-.12-4.71-.33-6.48-.5-2.18-.21-4.31-.45-6.33-.69-4.6-.56-8.57-1.12-12.15-1.73q-2.94-.49-5.79-1l-2.82-.52-2.8-.5C17.47.69 15.65.43 13.68.2l-.54-.06a15.1 15.1 0 0 0-8.88 4.49q1.8.1 3.66.29A102.47 102.47 0 0 1 18.2 6.49z"/><path d="M257.31 15.52c-1.48-.39-3.1-.75-4.81-1.07-1.95-.37-3.57-.64-5.12-.84-2.15-.28-3.82-.46-5.42-.59l-1.4-.1-1.41-.08-1.63-.07H230.88l-5.13.19-1 .08-4.22.35-1.05.1-1.59.19-2.06.24c-1.44.17-2.93.34-4.41.56-3.85.54-7.71 1.15-11.79 1.79-5 .79-10.19 1.61-15.43 2.29s-10 1.08-14.27 1.25c-1.59.05-3.06.08-4.5.08a90 90 0 0 1-10-.51l-1.07-.13c-.83-.1-1.69-.21-2.54-.36l-1.78-.29-2.66-.54-2.64-.65-2.66-.78-2.57-.86-1.76-.63c-.83-.29-1.65-.61-2.48-.93l-1-.39-7.52-3c-1-.42-2.08-.84-3.13-1.23l-1.81-.68c-.4-.15-.81-.29-1.22-.43l-.64-.22a64.94 64.94 0 0 0-7.62-2.16c-.65-.14-1.3-.28-2-.4l-1.94-.29c-.66-.11-1.32-.17-2-.23l-.65-.06c-.45 0-.9-.09-1.35-.1l-2.67-.05-1.8.07-1.48.11c-.44 0-.87.08-1.3.14l-.69.08a79.06 79.06 0 0 0-14.8 3.74c-2.74.94-5.46 1.92-8.09 2.88-1.89.69-3.77 1.37-5.64 2a101.91 101.91 0 0 1-13.32 3.87 59.84 59.84 0 0 1-6.56 1c-.53.06-1.06.08-1.59.11h-3.21l-2.33-.1-2.34-.21-1.57-.2c-.5-.06-1-.13-1.51-.22l-1.52-.25-.94-.18-.57-.11c-.82-.16-1.64-.34-2.45-.52l-.51-.11c-.71-.16-1.42-.34-2.12-.51l-.77-.19-1.05-.28-1.81-.5c-1.42-.38-2.81-.79-4.19-1.19l-6.74-2-2.63-.75-2.33-.63-2.79-.71-2.53-.57-.53-.11-.93-.19a15 15 0 0 0-1.13 5.71v.79l.35.08.78.17 2.37.56 2.47.61 5.15 1.33q2.65.7 5.46 1.38 1.41.35 2.85.67c.8.19 1.62.36 2.44.54l.5.11c.64.14 1.3.26 2 .38l1.08.2.77.13c.77.13 1.54.26 2.33.38l.81.12c.79.11 1.58.23 2.37.3l.54.06 1.08.11 1.62.12c.56 0 1.12.07 1.68.09l1.68.06h2.54l2.61-.12 2.51-.25 1-.13c.55-.08 1.11-.15 1.65-.25a63.2 63.2 0 0 0 6.84-1.55c4.34-1.21 8.49-2.73 13.45-4.59l1.62-.61c3.9-1.46 7.92-3 12-4.13a53.86 53.86 0 0 1 14.26-2.28h1.8l1.31.05 1.65.13 2.38.33a51.94 51.94 0 0 1 7 1.68l.85.25.88.3 1.73.57 1.39.51c.7.25 1.39.5 2.1.78 1.85.7 3.71 1.45 5.57 2.19l2.77 1.12c4.23 1.72 8.6 3.49 13.21 4.89l1 .3 2.83.76 2.9.65 2.91.52 1.26.18.67.09c.93.14 1.86.22 2.77.3l1.15.1c2.11.16 4.3.23 6.52.23 2.81 0 5.77-.13 8.8-.38 4.47-.38 9.12-1 14.63-1.95 3.91-.67 7.74-1.44 11.44-2.19l5.8-1.17 2.13-.41 4.45-.84 3.25-.56c2.16-.39 4.31-.69 6.34-1l1.56-.21 1-.11 4.18-.42.94-.09 5-.27h.76l4.5.06a51 51 0 0 1 5.44.38c1.89.21 3.58.47 5.19.78a73.33 73.33 0 0 1 9.35 2.39 72.32 72.32 0 0 1 7.84 3.07l1.13.55a15 15 0 0 0 1.78-4.24l-1.11-.47a67.47 67.47 0 0 0-8.5-2.76z"/><path d="M233.47 25.27l-2.82-.4c-.62-.09-1.24-.15-1.87-.22l-2.06-.23c-.64-.07-1.29-.15-1.94-.19l-3-.23c-.95-.09-1.91-.13-2.85-.17l-1.34-.06-2.06-.08h-4.81l-4.94.19-3.25.23-3.37.33-3.35.39c-3.22.4-6.52.89-9.72 1.35l-3.84.56c-4.38.62-9.08 1.25-13.79 1.59-2.46.18-4.72.27-6.93.27-2.42 0-4.77-.11-7-.33l-1.46-.14-2-.29c-.43-.05-.83-.13-1.23-.2l-1.11-.2c-.35-.06-.71-.12-1.08-.21-2.05-.42-4.26-1-6.95-1.69-3.63-1-7.34-2.21-10.93-3.37l-3.09-1c-2.67-.86-5-1.56-7.18-2.17l-1.82-.5-1.82-.46c-.62-.16-1.24-.31-1.86-.44l-1.53-.39-.27-.06-4.23-.73-4.33-.45h-.65l-2.86-.1H96.98a95.18 95.18 0 0 0-14.75 1.57c-5 .91-9.85 2.06-13.92 3.07L55.1 23.83l-1.15.27c-1.76.42-3.51.84-5.25 1.22s-3.61.78-5.36 1.13l-1.8.36-2.13.36-1.11.19c-.65.11-1.29.23-1.93.31l-3 .42c-.63.09-1.26.16-1.89.22l-1.06.12c-1.52.19-3 .3-4.52.41l-1.94.15-3.13.14c-.59 0-1.17.06-1.75.06h-3.2c-2.2 0-4.38-.07-6.54-.17a15 15 0 0 0 5.81 1.17h32.32l2.12-.42c1.77-.35 3.54-.74 5.34-1.14l1.18-.26 13.28-3.08c4-.92 8.78-2 13.65-2.79a90.07 90.07 0 0 1 14-1.31H99.9l2.74.13h.52l3.85.44 4.17.78 1.56.37c.58.13 1.15.28 1.73.44l1.74.46 1.75.51c2.06.61 4.27 1.3 7 2.19l3.08 1c2.66.88 5.38 1.78 8.13 2.62h67l3.09-.21 4.63-.16h4.58l1.91.08 1.34.06c.92 0 1.79.08 2.68.16h30.92a15 15 0 0 0 3-.3l-1.7-.47a165.93 165.93 0 0 0-20.15-4.02z"/></g><path d="M92.37 20.11v1h-8.44V9.21h8.16v1h-7.13v4.41h5.62v1h-5.62v4.61h7.42zM101.82 21.07l-3.53-5.28-3.57 5.28h-1.21l4.23-6.09-3.85-5.8h1.22l3.29 5 3.33-5h1.13l-3.92 5.76 4.05 6.12h-1.19zM113.4 12.7c0 2.18-1.57 3.51-4 3.51h-3v4.86h-1V9.21h4c2.43 0 4 1.31 4 3.49zm-1.06 0c0-1.64-1-2.56-3.08-2.56h-2.84v5.07h2.84c2.03 0 3.07-.87 3.07-2.51zM120.47 15.97h-3.38v5.1h-1V9.21h4.38c2.38 0 3.92 1.3 3.92 3.38a3.19 3.19 0 0 1-2.77 3.28l3.42 5.22h-1.21zm-3.38-1h3.38c1.87 0 2.86-.86 2.86-2.45s-1-2.43-2.86-2.43h-3.38v4.88zM136.11 20.11v1h-8.44V9.21h8.16v1h-7.13v4.41h5.62v1h-5.62v4.61h7.42zM147 11.62l-.88.7a3.34 3.34 0 0 0-3.6-2.36c-2.09 0-3.29 1-3.29 2.36s.85 1.91 3.66 2.39c3.15.52 4.27 1.48 4.27 3.26 0 2-1.8 3.28-4.48 3.28-2.5 0-4.27-1.06-4.93-2.79l.88-.7c.52 1.64 2 2.54 4.07 2.54s3.4-.81 3.4-2.27c0-1.19-.86-1.87-3.51-2.32-3.29-.56-4.43-1.49-4.43-3.28s1.64-3.42 4.36-3.42a4.48 4.48 0 0 1 4.48 2.61zM158.23 11.62l-.88.7a3.34 3.34 0 0 0-3.6-2.36c-2.09 0-3.29 1-3.29 2.36s.85 1.91 3.66 2.39c3.15.52 4.27 1.48 4.27 3.26 0 2-1.8 3.28-4.48 3.28-2.5 0-4.27-1.06-4.93-2.79l.88-.7c.52 1.64 2 2.54 4.07 2.54s3.4-.81 3.4-2.27c0-1.19-.86-1.87-3.51-2.32-3.29-.56-4.43-1.49-4.43-3.28s1.64-3.42 4.36-3.42a4.48 4.48 0 0 1 4.48 2.61zM162.28 20.33a.89.89 0 1 1-.9-.9.85.85 0 0 1 .9.9zM171.47 17.11c0 2.58-1.4 4.14-3.83 4.14s-3.83-1.57-3.4-4l1-.22c-.29 2.16.47 3.26 2.41 3.26s2.84-1.24 2.84-3.42V9.21h1v7.92zM183.33 11.62l-.88.7a3.34 3.34 0 0 0-3.6-2.36c-2.09 0-3.29 1-3.29 2.36s.85 1.91 3.66 2.39c3.15.52 4.27 1.48 4.27 3.26 0 2-1.8 3.28-4.48 3.28-2.5 0-4.27-1.06-4.93-2.79l.88-.7c.52 1.64 2 2.54 4.07 2.54s3.4-.81 3.4-2.27c0-1.19-.86-1.87-3.51-2.32-3.29-.56-4.43-1.49-4.43-3.28s1.64-3.42 4.36-3.42a4.48 4.48 0 0 1 4.48 2.61z" fill="#fff"/></g></svg>