<svg data-name="The Classics" xmlns="http://www.w3.org/2000/svg" viewBox="0 0 267.4 43.92"><title>fs_jquery</title><rect width="267.4" height="30.25" rx="15.12" ry="15.12" fill="#d61f26"/><path d="M252.25 0H133.67v30.25h118.58a15.125 15.125 0 0 0 0-30.25z" fill="#c5232c" fill-rule="evenodd"/><path d="M246.06 26.93c0 3.05 0 5.45-.13 6.74s-.47 3.19-.6 4c-.18 1.16-.81 3-.13 4.47 1.08 2.34 4 2.37 4.94 0 .52-1.31-.1-3.28-.34-4.8-.12-.79-.43-2.42-.55-3.59-.14-1.33-.21-3.54-.21-6.81M238.82 26.93c0 1.83 0 3.26-.08 4s-.28 1.91-.36 2.4a4.69 4.69 0 0 0-.08 2.67 1.56 1.56 0 0 0 3 0c.31-.79-.06-2-.2-2.87-.07-.47-.25-1.45-.33-2.14s-.13-2.12-.13-4.07" fill="#c5232c"/><path d="M107.84 17.53c0 2.58-1.4 4.14-3.83 4.14s-3.83-1.57-3.4-4l1-.22c-.29 2.16.47 3.26 2.41 3.26s2.84-1.24 2.84-3.42V9.6h1v7.92zM121.29 23.31l.36.94a3.86 3.86 0 0 1-2.41.76 3.21 3.21 0 0 1-3.44-3.35c-3.11-.2-5-2.5-5-6.1 0-3.76 2.11-6.12 5.47-6.12s5.47 2.36 5.47 6.12c0 3.58-1.91 5.89-5 6.1a2.24 2.24 0 0 0 2.54 2.32 2.92 2.92 0 0 0 2.01-.67zm-5.06-2.59c2.72 0 4.41-2 4.41-5.17s-1.69-5.17-4.41-5.17-4.41 2-4.41 5.17 1.69 5.17 4.41 5.17zM133.8 17.14c0 3-1.66 4.54-4.59 4.54s-4.61-1.57-4.61-4.54V9.61h1v7.29c0 2.54 1.22 3.82 3.58 3.82s3.57-1.28 3.57-3.82V9.61h1v7.53zM145.9 20.54v1h-8.44V9.66h8.16v1h-7.11v4.41h5.62v1h-5.62v4.61h7.42zM152.99 16.4h-3.38v5.1h-1V9.62h4.43c2.38 0 3.92 1.3 3.92 3.38a3.19 3.19 0 0 1-2.77 3.28l3.42 5.22h-1.21zm-3.38-1h3.38c1.87 0 2.86-.86 2.86-2.45s-1-2.43-2.86-2.43h-3.38v4.88zM163.43 16.87v4.63h-1v-4.63l-4.23-7.26h1.22l3.51 6.19 3.53-6.19h1.21z" fill="#fff"/></svg>