<svg xmlns="http://www.w3.org/2000/svg" viewBox="0 0 267.4 30.25"><title>fs_java-php</title><g data-name="The Classics" style="isolation:isolate"><rect width="267.4" height="30.25" rx="15.12" ry="15.12" fill="#51271a"/><path d="M252.28-.04H133.7v30.25h118.58a15.125 15.125 0 1 0 0-30.25z" fill="#51271a" fill-rule="evenodd" opacity=".45" style="mix-blend-mode:multiply"/><path d="M4.96 22.83L19.79 9.7l14.83 13.13-8.22 7.28h4l6.22-5.51 6.22 5.51h4l-8.22-7.28L53.45 9.7l14.83 13.13-8.22 7.28h4l6.22-5.51 6.22 5.51h4l-8.22-7.28L87.11 9.7l14.83 13.13-8.22 7.28h4l6.22-5.51 6.22 5.51h4l-8.22-7.28L120.77 9.7l14.83 13.13-8.22 7.28h4l6.22-5.51 6 5.33a11.8 11.8 0 0 0 3-.91l-7-6.19 14.47-12.81v.19l14.26 12.62-6.91 6.12a11.68 11.68 0 0 0 2.92 1l6-5.3 6.22 5.51h4l-8.22-7.28 14.83-13.13L202 22.88l-8.22 7.28h4l6.22-5.51 6.22 5.51h4L206 22.88l14.83-13.13 14.83 13.13-8.22 7.28h4l6.22-5.51 6.22 5.51h4l-8.22-7.28 14.83-13.13 11.91 10.54a14.93 14.93 0 0 0 .71-2.91L256.5 7.99l5.06-4.48a15.22 15.22 0 0 0-2.28-1.52l-4.77 4.23-6.81-6h-4l8.81 7.8-14.83 13.13-14.83-13.19 8.81-7.8h-4l-6.81 6-6.81-6h-4l8.81 7.8-14.83 13.13-14.84-13.13 8.81-7.8h-4l-6.81 6-6.81-6h-4l8.81 7.8-14.83 13.13-14.84-13.13 8.81-7.79h-4l-6.24 5.52v.19L147.63.17h-4l8.81 7.8-14.83 13.13-14.83-13.14 8.81-7.8h-4l-6.81 6-6.81-6h-4l8.81 7.8-14.83 13.13L89.11 7.96l8.81-7.8h-4l-6.81 6-6.81-6h-4l8.81 7.8-14.83 13.13L55.45 7.96l8.81-7.8h-4l-6.81 6-6.81-6h-4l8.81 7.8-14.83 13.13L21.79 7.96 30.6.16h-4l-6.81 6-6.66-5.9a14.91 14.91 0 0 0-3.15.75l7.81 6.92L2.96 21.06.28 18.69a15.1 15.1 0 0 0 3.36 6.52l2.95 2.61a15 15 0 0 0 5.57 2.29h1z" fill="#020202" opacity=".2" style="mix-blend-mode:multiply"/><path d="M100.15 17.1c0 2.58-1.4 4.14-3.83 4.14s-3.83-1.57-3.4-4l1-.22c-.29 2.16.47 3.26 2.41 3.26s2.84-1.24 2.84-3.42V9.17h1v7.92zM110.23 17.45h-5.62l-1.42 3.62h-1.08l4.72-11.88h1.22l4.7 11.88h-1.08zm-.38-1l-1.94-5-.47-1.37-.43 1.31-2 5h4.84zM118.33 21.06h-1.19l-4.57-11.88h1.1l3.4 9 .67 2 .67-1.94 3.4-9h1.1zM130.85 17.45h-5.62l-1.42 3.62h-1.08l4.72-11.88h1.22l4.7 11.88h-1.08zm-.38-1l-1.94-5-.47-1.37-.43 1.31-2 5h4.86zM135.27 22.32h-1l5.2-14.4h1zM150.95 12.69c0 2.18-1.57 3.51-4 3.51h-3v4.86h-1V9.18h4c2.43 0 4 1.33 4 3.51zm-1.06 0c0-1.64-1-2.56-3.08-2.56h-2.84v5.11h2.88c2 .01 3-.91 3-2.55zM162.79 9.18v11.88h-1V15.5h-7.15v5.56h-1V9.18h1v5.37h7.15V9.18h1zM174.56 12.69c0 2.18-1.57 3.51-4 3.51h-3v4.86h-1V9.18h4c2.44 0 4 1.33 4 3.51zm-1.06 0c0-1.64-1-2.56-3.08-2.56h-2.84v5.11h2.84c2.04.01 3.08-.91 3.08-2.55z" fill="#fff"/></g></svg>