<svg xmlns="http://www.w3.org/2000/svg" viewBox="0 0 267.4 30.25"><title>fs_linux</title><g data-name="The Classics" style="isolation:isolate"><rect width="267.4" height="30.25" rx="15.12" ry="15.12" fill="#e0cae2"/><path d="M252.28 0H133.7v30.25h118.58a15.125 15.125 0 1 0 0-30.25z" fill="#e0cae2" fill-rule="evenodd" opacity=".45" style="mix-blend-mode:multiply"/><g style="mix-blend-mode:multiply" fill="#e0cae2"><path d="M266.88 11.27H.52a14.9 14.9 0 0 0-.42 2.15h267.2a14.9 14.9 0 0 0-.42-2.15zM264.49 6.25H2.92a15.18 15.18 0 0 0-1.31 2.16h264.21a15.16 15.16 0 0 0-1.33-2.16zM256.38.58H11.03a15 15 0 0 0-3.61 1.56h252.57a15 15 0 0 0-3.61-1.56zM266.76 19.46H.65a15 15 0 0 0 .85 2.15h264.41a15 15 0 0 0 .85-2.15zM262.14 26.55H5.27a15.12 15.12 0 0 0 5.77 3.11h245.35a15.12 15.12 0 0 0 5.75-3.11z"/></g><path d="M117.35 20.02v1h-8.07V9.14h1v10.93h7zM120.72 20.98h-1V9.1h1v11.88zM133.68 20.98h-1.28l-6-9-1-1.75.05 1.6V21h-1V9.12h1.37l6 9 1 1.78-.05-1.6V9.13h1v11.88zM146.51 16.62c0 3-1.66 4.54-4.59 4.54s-4.61-1.57-4.61-4.54V9.09h1v7.29c0 2.54 1.22 3.82 3.58 3.82s3.57-1.28 3.57-3.82V9.09h1v7.53zM156.93 20.98l-3.53-5.28-3.57 5.28h-1.21l4.23-6.09-3.85-5.8h1.22l3.29 5 3.33-5h1.13l-3.92 5.76 4.05 6.12h-1.19z" fill="#231f20"/></g></svg>