<svg xmlns="http://www.w3.org/2000/svg" viewBox="0 0 267.4 30.25"><title>fs_mysql</title><g data-name="The Classics" style="isolation:isolate"><rect width="267.4" height="30.25" rx="15.12" ry="15.12" fill="#ffcd05"/><path d="M11.94 15.13a15.07 15.07 0 0 1 4.87-11.07h-.14a11.07 11.07 0 0 0 0 22.14h.14a15.07 15.07 0 0 1-4.87-11.07z" fill="#feea98" fill-rule="evenodd" opacity=".65" style="mix-blend-mode:screen"/><path d="M252.25 0H133.67v30.25h118.58a15.125 15.125 0 1 0 0-30.25z" fill="#ffcd05" fill-rule="evenodd" opacity=".45" style="mix-blend-mode:multiply"/><path d="M117.41 20.77h-1v-8.58l.11-2.38-4.25 10.91h-.92l-4.23-10.91.11 2.38v8.54h-1V8.89h1.58l3.37 8.59.65 2.09.67-2.07 3.35-8.61h1.57v11.88zM124.81 16.19v4.63h-1v-4.63l-4.23-7.26h1.22l3.51 6.19 3.53-6.19h1.21zM138.97 11.32l-.88.7a3.34 3.34 0 0 0-3.6-2.36c-2.09 0-3.29 1-3.29 2.36s.85 1.91 3.66 2.39c3.15.52 4.27 1.48 4.27 3.26 0 2-1.8 3.28-4.48 3.28-2.5 0-4.27-1.06-4.93-2.79l.88-.7c.52 1.64 2 2.54 4.07 2.54s3.4-.81 3.4-2.27c0-1.19-.86-1.87-3.51-2.32-3.29-.56-4.43-1.49-4.43-3.28s1.64-3.42 4.36-3.42a4.48 4.48 0 0 1 4.48 2.61zM151.81 22.59l.36.94a3.86 3.86 0 0 1-2.41.76 3.21 3.21 0 0 1-3.44-3.35c-3.11-.2-5-2.5-5-6.1 0-3.76 2.11-6.12 5.47-6.12s5.47 2.36 5.47 6.12c0 3.58-1.91 5.89-5 6.1a2.24 2.24 0 0 0 2.54 2.32 2.92 2.92 0 0 0 2.01-.67zM146.75 20c2.72 0 4.41-2 4.41-5.17s-1.69-5.17-4.41-5.17-4.41 2-4.41 5.17 1.67 5.17 4.39 5.17zM163.3 19.82v1h-8.07V8.89h1v10.93h7z" fill="#231f20"/></g></svg>