<svg xmlns="http://www.w3.org/2000/svg" viewBox="0 0 267.4 43.92"><title>fs_node</title><g data-name="The Classics" style="isolation:isolate"><rect width="267.4" height="30.25" rx="15.12" ry="15.12" fill="#eac01e"/><path d="M252.25 0H133.67v30.25h118.58a15.125 15.125 0 0 0 0-30.25z" fill="#eac01e" fill-rule="evenodd" opacity=".45" style="mix-blend-mode:multiply"/><path d="M246.06 26.93c0 3.05 0 5.45-.13 6.74s-.47 3.19-.6 4c-.18 1.16-.81 3-.13 4.47 1.08 2.34 4 2.37 4.94 0 .52-1.31-.1-3.28-.34-4.8-.12-.79-.43-2.42-.55-3.59-.14-1.33-.21-3.54-.21-6.81M238.82 26.93c0 1.83 0 3.26-.08 4s-.28 1.91-.36 2.4a4.69 4.69 0 0 0-.08 2.67 1.56 1.56 0 0 0 3 0c.31-.79-.06-2-.2-2.87-.07-.47-.25-1.45-.33-2.14s-.13-2.12-.13-4.07" fill="#e0af35"/><path d="M106.97 21.9h-1.28l-6-9-1-1.75.05 1.6v9.17h-1V10.04h1.28l6 9 1 1.78-.05-1.6v-9.17h1v11.88zM120.96 15.95c0 3.76-2.11 6.12-5.47 6.12s-5.47-2.36-5.47-6.12 2.11-6.12 5.47-6.12 5.47 2.36 5.47 6.12zm-9.88 0c0 3.21 1.69 5.17 4.41 5.17s4.41-2 4.41-5.17-1.69-5.17-4.41-5.17-4.42 1.97-4.42 5.17zM133.7 15.88c0 3.89-2.16 6-5.94 6H124V10h3.76c3.75.01 5.94 2.09 5.94 5.88zm-1.08 0c0-3.13-1.71-4.92-4.77-4.92h-2.83v10h2.83c3.06-.02 4.77-1.87 4.77-5.08zM145.18 20.94v1h-8.44V10.06h8.16v1h-7.13v4.41h5.62v1h-5.62v4.61h7.42zM148.94 21.16a.89.89 0 1 1-.9-.9.85.85 0 0 1 .9.9zM158.13 17.93c0 2.58-1.4 4.14-3.83 4.14s-3.83-1.57-3.4-4l1-.22c-.29 2.16.47 3.26 2.41 3.26s2.84-1.24 2.84-3.42V10h1v7.92zM169.99 12.44l-.88.7a3.34 3.34 0 0 0-3.6-2.36c-2.09 0-3.29 1-3.29 2.36s.85 1.91 3.66 2.39c3.15.52 4.27 1.48 4.27 3.26 0 2-1.8 3.28-4.48 3.28-2.5 0-4.27-1.06-4.93-2.79l.88-.7c.52 1.64 2 2.54 4.07 2.54s3.4-.81 3.4-2.27c0-1.19-.86-1.87-3.51-2.32-3.29-.56-4.43-1.49-4.43-3.28s1.64-3.42 4.36-3.42a4.48 4.48 0 0 1 4.48 2.61z" fill="#231f20"/></g></svg>