<svg xmlns="http://www.w3.org/2000/svg" viewBox="0 0 267.4 43.92"><title>fs_ruby</title><g data-name="The Classics" style="isolation:isolate"><rect width="267.4" height="30.25" rx="15.12" ry="15.12" fill="#931a1d"/><path d="M252.25 0H133.67v30.25h118.58a15.125 15.125 0 1 0 0-30.25z" fill="#931a1d" fill-rule="evenodd" opacity=".45" style="mix-blend-mode:multiply"/><path d="M246.06 26.93c0 3.05 0 5.45-.13 6.74s-.47 3.19-.6 4c-.18 1.16-.81 3-.13 4.47 1.08 2.34 4 2.37 4.94 0 .52-1.31-.1-3.28-.34-4.8-.12-.79-.43-2.42-.55-3.59-.14-1.33-.21-3.54-.21-6.81M238.82 26.93c0 1.83 0 3.26-.08 4s-.28 1.91-.36 2.4a4.69 4.69 0 0 0-.08 2.67 1.56 1.56 0 0 0 3 0c.31-.79-.06-2-.2-2.87-.07-.47-.25-1.45-.33-2.14s-.13-2.12-.13-4.07" fill="#77171b"/><path d="M73.96 16.39h-3.42v5.1h-1V9.61h4.43c2.38 0 3.92 1.3 3.92 3.38a3.19 3.19 0 0 1-2.77 3.28l3.42 5.22h-1.21zm-3.38-1h3.38c1.87 0 2.86-.86 2.86-2.45s-1-2.43-2.86-2.43h-3.42v4.88zM90.24 17.13c0 3-1.66 4.54-4.59 4.54s-4.61-1.57-4.61-4.54V9.6h1v7.27c0 2.54 1.22 3.82 3.58 3.82s3.57-1.28 3.57-3.82V9.58h1v7.53zM93.89 9.61h4.21c2.65 0 3.89 1.17 3.89 3.19a2.57 2.57 0 0 1-2.12 2.67 2.75 2.75 0 0 1 2.45 2.79c0 2-1.5 3.22-4.23 3.22h-4.2V9.6zm4.21 5.42c1.87 0 2.83-.74 2.83-2.23s-1-2.23-2.83-2.23h-3.19v4.46h3.19zm.2 5.51c2 0 3-.81 3-2.29s-1-2.27-3-2.27h-3.38v4.56h3.38zM108.59 16.87v4.63h-1v-4.63l-4.23-7.26h1.18l3.51 6.19 3.53-6.19h1.21zM130.18 15.55c0 3.76-2.11 6.12-5.47 6.12s-5.47-2.36-5.47-6.12 2.11-6.12 5.47-6.12 5.47 2.35 5.47 6.12zm-9.88 0c0 3.21 1.69 5.17 4.41 5.17s4.41-2 4.41-5.17-1.69-5.17-4.41-5.17-4.42 1.96-4.42 5.17zM142.4 21.49h-1.28l-6-9-1-1.75.05 1.6v9.16h-1V9.62h1.37l6 9 1 1.78-.05-1.6V9.64h1v11.88zM156.33 16.39h-3.38v5.1h-1V9.61h4.43c2.38 0 3.92 1.3 3.92 3.38a3.19 3.19 0 0 1-2.77 3.28l3.42 5.22h-1.21zm-3.38-1h3.38c1.87 0 2.86-.86 2.86-2.45s-1-2.43-2.86-2.43h-3.38v4.88zM170.15 17.87h-5.61l-1.42 3.62h-1.08l4.72-11.88h1.22l4.7 11.88h-1.08zm-.38-1l-1.94-5-.47-1.37-.43 1.31-2 5h4.86zM175.97 21.49h-1V9.61h1v11.88zM187.81 20.54v1h-8.07V9.66h1v10.93h7zM198.29 12.04l-.88.7a3.34 3.34 0 0 0-3.6-2.36c-2.09 0-3.3 1-3.3 2.36s.85 1.91 3.66 2.39c3.15.52 4.27 1.48 4.27 3.26 0 2-1.8 3.28-4.48 3.28-2.5 0-4.27-1.06-4.93-2.79l.88-.7c.52 1.64 2 2.54 4.07 2.54s3.4-.81 3.4-2.27c0-1.19-.86-1.87-3.51-2.32-3.29-.56-4.43-1.49-4.43-3.28s1.64-3.42 4.36-3.42a4.48 4.48 0 0 1 4.49 2.61z" fill="#fff"/></g></svg>