<svg data-name="The Classics" xmlns="http://www.w3.org/2000/svg" viewBox="0 0 267.4 43.92"><title>fs_x</title><rect width="267.4" height="30.25" rx="15.12" ry="15.12" fill="#dc5326"/><path d="M252.25 0H133.67v30.23h118.58a15.12 15.12 0 1 0 0-30.23z" fill="#d3462f" fill-rule="evenodd"/><path d="M246.06 26.92c0 3.05 0 5.45-.13 6.74s-.47 3.19-.6 4c-.18 1.16-.81 3-.13 4.47 1.08 2.34 4 2.37 4.94 0 .52-1.31-.1-3.28-.34-4.8-.12-.79-.43-2.42-.55-3.59-.14-1.33-.21-3.54-.21-6.81M238.82 26.92c0 1.83 0 3.26-.08 4s-.28 1.91-.36 2.4a4.69 4.69 0 0 0-.08 2.67 1.56 1.56 0 0 0 3 0c.31-.79-.06-2-.2-2.87-.07-.47-.25-1.45-.33-2.14s-.13-2.12-.13-4.07" fill="#d3462f"/><path d="M137.09 22.23l-3.53-5.28-3.57 5.28h-1.21l4.23-6.09-3.85-5.8h1.22l3.29 5 3.33-5h1.13l-3.92 5.76 4.05 6.12h-1.19z" fill="#fff"/></svg>