<svg data-name="Signature Stacks" xmlns="http://www.w3.org/2000/svg" viewBox="0 0 99.14 22.52"><title>sig_logo_dropbox</title><path data-name="&amp;lt;Compound Path&amp;gt;" d="M27.77 4.65h4.8c4.11 0 6.71 2.65 6.71 6.79s-2.58 6.79-6.71 6.79h-4.8V4.66zm4.69 11.09c2.58 0 4-1.66 4-4.29s-1.42-4.31-4-4.31h-1.88v8.6h1.88z" fill="#fff"/><path data-name="&amp;lt;Path&amp;gt;" d="M46.58 11.05a2.69 2.69 0 0 0-1.38-.33 1.79 1.79 0 0 0-1.88 1.39v6.12h-2.74V8.37h2.74v1a2.55 2.55 0 0 1 2.21-1.19 2.7 2.7 0 0 1 1 .17v2.76z" fill="#fff"/><path data-name="&amp;lt;Compound Path&amp;gt;" d="M52.03 18.46c-2.88 0-4.85-2.12-4.85-5.16s2-5.18 4.85-5.18 4.84 2.12 4.84 5.18-1.97 5.16-4.84 5.16zm0-8c-1.38 0-2.12 1.19-2.12 2.85s.76 2.84 2.12 2.84 2.12-1.19 2.12-2.84-.76-2.85-2.12-2.85zM60.79 21.9h-2.74V8.37h2.74v.82a3.4 3.4 0 0 1 2.48-1c2.88 0 4.51 2.39 4.51 5.18s-1.63 5.16-4.51 5.16a3.4 3.4 0 0 1-2.48-1v4.45zm0-7a2.07 2.07 0 0 0 1.86 1.15c1.48 0 2.37-1.19 2.37-2.77s-.89-2.78-2.37-2.78a2.09 2.09 0 0 0-1.86 1.15v3.25zM71.72 18.24h-2.77V3.86h2.77v5.32a3.4 3.4 0 0 1 2.48-1c2.88 0 4.49 2.35 4.49 5.18s-1.62 5.16-4.49 5.16a3.4 3.4 0 0 1-2.48-1v.8zm0-3.31a2 2 0 0 0 1.86 1.15c1.48 0 2.37-1.19 2.37-2.77s-.89-2.78-2.37-2.78a2.09 2.09 0 0 0-1.86 1.15v3.25zM84.53 18.49c-2.88 0-4.85-2.12-4.85-5.16s2-5.18 4.85-5.18 4.84 2.12 4.84 5.18-1.98 5.16-4.84 5.16zm0-8c-1.38 0-2.12 1.19-2.12 2.85s.76 2.84 2.12 2.84 2.12-1.19 2.12-2.84-.76-2.86-2.12-2.86z" fill="#fff"/><path data-name="&amp;lt;Path&amp;gt;" d="M95.58 13.14l3.61 5.12h-3l-2.12-3.1-2.15 3.1h-2.88l3.57-5.05-3.35-4.84h3l1.91 2.81 1.94-2.81h2.88zM7.14 0L0 4.6l4.94 3.99 7.19-4.44L7.14 0zM0 12.49l7.14 4.69 4.99-4.15-7.19-4.44L0 12.49zM12.13 13.03l4.98 4.15 7.12-4.64-4.93-3.95-7.17 4.44z" fill="#fff"/><path data-name="&amp;lt;Path&amp;gt;" fill="#fff" d="M24.23 4.64L17.11 0l-4.98 4.15 7.17 4.44 4.93-3.95zM12.14 13.92l-5 4.15L5 16.68v1.56l7.14 4.28 7.13-4.28v-1.56l-2.13 1.39-5-4.15z"/></svg>