<svg xmlns="http://www.w3.org/2000/svg" viewBox="0 0 413.07 302.87"><defs><clipPath id="a" transform="translate(-1577.6 -5467.32)"><rect x="1634.88" y="5659.63" width="267.4" height="30.25" rx="15.12" ry="15.12" transform="rotate(180 1768.585 5674.755)" fill="none"/></clipPath></defs><title>sig_airbnb</title><g data-name="Signature Stacks" style="isolation:isolate"><path d="M404.48 204.53c-14-19.25-48.5-46.13-86.33-57.94-25.68-8-65.5-15.75-100-26.18-16.23-4.91-31.29-10.42-43.13-16.84-1.16-.6-2.69-1.37-4.27-2.17l-.21-.11-.7-.35-.19-.1-.71-.36-.11-.05c-3.35-1.67-6.45-3.2-6.45-3.2s-19-9.34-41.36-9.26a71.5 71.5 0 0 0-12.64 1.14 177.59 177.59 0 0 1-38 2.21 12.43 12.43 0 0 0 2.58 6.89h.07a257.84 257.84 0 0 0 35.58-2.13H123.74l1.08.07h.49l1.14.09h.5l1.19.11.5.05 1.23.14.51.06 1.28.17.5.07 1.34.2.5.08 1.39.23.48.09 1.46.27.44.09 1.54.32.36.08 1.66.38.24.06 1.82.45a101.54 101.54 0 0 1 10.59 3.38q1.21.46 2.44 1a108.22 108.22 0 0 1 10 4.75c15.44 8.67 32.79 14.47 49.56 19.9 25.89 8.38 49.77 13.23 60.59 15.64 41.39 9.19 72.06 17.39 112.25 51.35 27.36 23.11 25 54.5 1.12 55.21-16.94.5-33.23 3.9-43.29 20l-2.57 2.8c-.36 3.76 7.39 6.38 7.95 6.56l.85-1.43c4.78-13.73 18.3-21.5 39.8-26.25 20.99-5.04 27.27-26.17 11.8-47.47z" fill="#5d5e5e"/><path d="M311.16 222.56v1.12c0 28.37-18.87 51.58-41.95 51.58H111.82c-23.07 0-41.95-23.21-41.95-51.58v-1.15h241.29z" fill="#f7aa40" fill-rule="evenodd"/><path d="M311.16 222.56v1.12c0 28.37-18.87 51.58-41.95 51.58h-78.7v-52.72h120.64z" fill="#f7aa40" fill-rule="evenodd" opacity=".45" style="mix-blend-mode:multiply"/><rect x="57.28" y="192.31" width="267.4" height="30.25" rx="15.12" ry="15.12" fill="#51271a"/><g clip-path="url(#a)" opacity=".45" style="mix-blend-mode:multiply"><path d="M378.91 198.04l-14.5-12.83 3.58-3.17a11.57 11.57 0 0 0-1.49-.1h-2.39l-1.7 1.51-1.7-1.51h-4l3.7 3.27-14.83 13.13-14.83-13.13 3.7-3.27h-4l-1.7 1.51-1.7-1.51h-4l3.7 3.27-14.83 13.13-14.83-13.13 3.7-3.27h-4l-1.7 1.51-1.7-1.51h-4l3.7 3.27-14.83 13.13-14.86-13.13 3.7-3.27h-4l-1.7 1.51-1.7-1.51h-4l3.7 3.27-14.83 13.13-14.83-13.13 3.7-3.27h-4l-1.7 1.51-1.7-1.51h-2.16a11.63 11.63 0 0 0-1.69.14l3.55 3.14-14.26 12.62v.19l-14.47-12.81 3.58-3.17a11.57 11.57 0 0 0-1.49-.1h-2.39l-1.7 1.51-1.7-1.51h-4l3.7 3.27-14.83 13.13-14.78-13.14 3.7-3.27h-4l-1.7 1.51-1.7-1.51h-4l3.7 3.27-14.83 13.13-14.83-13.13 3.7-3.27h-4l-1.7 1.51-1.7-1.51h-4l3.7 3.27-14.83 13.13-14.83-13.13 3.7-3.27h-4l-1.7 1.51-1.7-1.51h-4l3.7 3.27-14.83 13.13-14.85-13.13 3.7-3.27h-4l-1.7 1.51-1.7-1.51h-2.16a11.63 11.63 0 0 0-1.69.14l3.55 3.14-14.26 12.62v4.55l14.26 12.62-6.91 6.12a11.68 11.68 0 0 0 2.92 1l6-5.3 6.22 5.51h4l-8.22-7.28 14.83-13.13 14.83 13.13-8.22 7.28h4l6.22-5.51 6.22 5.51h4l-8.22-7.28 14.83-13.13 14.83 13.13-8.22 7.28h4l6.22-5.51 6.22 5.51h4l-8.22-7.28 14.83-13.13 14.83 13.13-8.22 7.28h4l6.22-5.51 6.22 5.51h4l-8.22-7.28 14.83-13.13 14.83 13.13-8.22 7.28h4l6.22-5.51 6 5.33a11.79 11.79 0 0 0 3-.91l-7-6.19 14.47-12.81v.19l14.26 12.62-6.91 6.12a11.68 11.68 0 0 0 2.92 1l6-5.3 6.22 5.51h4l-8.22-7.28 14.83-13.13 14.83 13.13-8.22 7.28h4l6.22-5.51 6.22 5.51h4l-8.22-7.28 14.83-13.13 14.83 13.13-8.22 7.28h4l6.22-5.51 6.22 5.51h4l-8.22-7.28 14.83-13.13 14.83 13.13-8.22 7.28h4l6.22-5.51 6.22 5.51h4l-8.22-7.28 14.83-13.13 14.83 13.13-8.22 7.28h4l6.22-5.51 6 5.33a11.79 11.79 0 0 0 3-.91l-7-6.19 14.5-12.83v-4.13zM60.4 213.23L45.57 200.1l14.83-13.12 14.83 13.13zm33.66 0L79.23 200.1l14.83-13.13 14.83 13.13zm33.66 0l-14.83-13.13 14.83-13.13 14.83 13.13zm33.66 0l-14.83-13.13 14.85-13.12 14.83 13.13zm33.66 0l-14.83-13.13 14.83-13.13 14.83 13.13zm32.74 0l-14.83-13.13 14.83-13.13 14.83 13.13zm33.66 0l-14.83-13.13 14.79-13.12 14.83 13.13zm33.66 0l-14.83-13.13 14.83-13.13 14.83 13.13zm33.66 0l-14.83-13.13 14.83-13.13 14.83 13.13zm33.66 0l-14.83-13.13 14.81-13.12 14.83 13.13z" fill="#5d3a07"/></g><path d="M309.56 192.31H190.98v30.25h118.58a15.125 15.125 0 1 0 0-30.25z" fill="#51271a" fill-rule="evenodd" opacity=".45" style="mix-blend-mode:multiply"/><rect x="57.28" y="162.07" width="267.4" height="30.25" rx="15.12" ry="15.12" fill="#ffcd05"/><path d="M69.22 177.19a15.07 15.07 0 0 1 4.87-11.07h-.14a11.07 11.07 0 0 0 0 22.14h.14a15.07 15.07 0 0 1-4.87-11.07z" fill="#feea98" fill-rule="evenodd" opacity=".65" style="mix-blend-mode:screen"/><path d="M309.53 162.06H190.95v30.25h118.58a15.125 15.125 0 0 0 0-30.25z" fill="#ffcd05" fill-rule="evenodd" opacity=".45" style="mix-blend-mode:multiply"/><path d="M174.69 182.84h-1v-8.53l.11-2.38-4.25 10.91h-.92l-4.23-10.91.11 2.38v8.53h-1v-11.88h1.55l3.37 8.59.65 2.09.67-2.07 3.35-8.61h1.57v11.88zM182.05 178.21v4.63h-1v-4.63l-4.23-7.26h1.22l3.51 6.19 3.53-6.19h1.21zM196.25 173.39l-.88.7a3.35 3.35 0 0 0-3.6-2.36c-2.09 0-3.29 1-3.29 2.36s.85 1.91 3.66 2.39c3.15.52 4.27 1.48 4.27 3.26 0 2-1.8 3.28-4.48 3.28-2.5 0-4.27-1.06-4.93-2.79l.88-.7c.52 1.64 2 2.54 4.07 2.54s3.4-.81 3.4-2.27c0-1.19-.86-1.87-3.51-2.32-3.29-.56-4.43-1.49-4.43-3.28s1.64-3.42 4.36-3.42a4.48 4.48 0 0 1 4.48 2.61zM209.07 184.68l.36.94a3.86 3.86 0 0 1-2.41.76 3.21 3.21 0 0 1-3.44-3.35c-3.11-.2-5-2.5-5-6.1 0-3.76 2.11-6.12 5.47-6.12s5.47 2.36 5.47 6.12c0 3.58-1.91 5.89-5 6.1a2.25 2.25 0 0 0 2.54 2.32 2.92 2.92 0 0 0 2.01-.67zm-5.06-2.59c2.72 0 4.41-2 4.41-5.17s-1.69-5.17-4.41-5.17-4.41 2-4.41 5.17 1.69 5.14 4.41 5.14zM220.59 181.88v1h-8.07V171h1v10.93h7z" fill="#231f20"/><path d="M178.3 208.97c0 2.58-1.4 4.14-3.83 4.14s-3.83-1.57-3.4-4l1-.22c-.29 2.16.47 3.26 2.41 3.26s2.84-1.24 2.84-3.42v-7.69h1v7.92zM188.4 209.32h-5.62l-1.42 3.62h-1.08l4.72-11.88h1.22l4.7 11.88h-1.08zm-.38-1l-1.94-5-.47-1.37-.43 1.31-2 5h4.86zM196.48 212.94h-1.19l-4.57-11.88h1.1l3.4 9 .67 2 .67-1.95 3.4-9h1.1zM208.99 209.32h-5.59l-1.42 3.62h-1.08l4.72-11.88h1.22l4.7 11.88h-1.14zm-.38-1l-1.94-5-.47-1.37-.43 1.31-2 5h4.86z" fill="#fff"/><path d="M70.29 90.77c0 4.69 4.58 10.8 8.4 10.8h224.48q8.4 0 8.4-8.4c0-46.77-40.18-79-83.28-89.08-24.49-5.72-57.84-5.73-81.79 1.81-39.65 12.49-76.21 46.18-76.21 84.87z" fill="#f7aa40" fill-rule="evenodd"/><path d="M228.29 4.08A171.13 171.13 0 0 0 190.93.01v101.56h112.24q8.4 0 8.4-8.4c.01-46.78-40.17-79.02-83.28-89.09z" fill="#f7aa40" fill-rule="evenodd" opacity=".45" style="mix-blend-mode:multiply"/><path d="M203.66 58.51c-1.54-1.17-4.35-6-3.68-6.87s6.06.54 7.6 1.72a3.25 3.25 0 1 1-3.92 5.15zM234.08 63.8c-.09-1.93 1.8-7.18 2.91-7.23s3.47 5 3.56 6.93a3.25 3.25 0 1 1-6.47.3zM211.06 84.68c-.09-1.93 1.8-7.18 2.91-7.23s3.47 5 3.56 6.93a3.25 3.25 0 1 1-6.47.3zM201.64 20.68c1.78-.76 7.36-.82 7.79.2s-3.47 5-5.25 5.76a3.25 3.25 0 1 1-2.54-5.96zM288.86 79.91c1.78-.76 7.36-.82 7.79.2s-3.47 5-5.25 5.76a3.25 3.25 0 1 1-2.54-5.96zM233.4 39.88c-1.34 1.4-6.45 3.64-7.24 2.88s1.23-6 2.57-7.36a3.25 3.25 0 1 1 4.67 4.48zM270.19 68.45c-1.34 1.4-6.45 3.64-7.24 2.88s1.23-6 2.57-7.36a3.25 3.25 0 1 1 4.67 4.48zM255.53 34.25c1.23-1.49 6.14-4.13 7-3.43s-.77 6-2 7.53a3.25 3.25 0 1 1-5-4.1zM281.47 56.11c-1.62-1.06-4.75-5.68-4.14-6.6s6.09.13 7.7 1.19a3.25 3.25 0 1 1-3.56 5.41zM249.48 89.34c-1.62-1.06-4.75-5.68-4.14-6.6s6.09.13 7.7 1.19a3.25 3.25 0 1 1-3.56 5.41zM175.81 58.51c1.54-1.17 4.35-6 3.68-6.87s-6.06.54-7.6 1.72a3.25 3.25 0 1 0 3.92 5.15zM145.4 63.8c.09-1.93-1.8-7.18-2.91-7.23s-3.47 5-3.56 6.93a3.25 3.25 0 1 0 6.47.3zM168.4 84.68c.09-1.93-1.8-7.18-2.91-7.23s-3.47 5-3.56 6.93a3.25 3.25 0 1 0 6.47.3zM177.83 20.68c-1.78-.76-7.36-.82-7.79.2s3.47 5 5.25 5.76a3.25 3.25 0 1 0 2.54-5.96zM90.61 79.91c-1.78-.76-7.36-.82-7.79.2s3.47 5 5.25 5.76a3.25 3.25 0 1 0 2.54-5.96zM146.06 39.88c1.34 1.4 6.45 3.64 7.24 2.88s-1.23-6-2.57-7.36a3.25 3.25 0 1 0-4.67 4.48zM109.28 68.45c1.34 1.4 6.45 3.64 7.24 2.88s-1.23-6-2.57-7.36a3.25 3.25 0 1 0-4.67 4.48zM123.94 34.25c-1.23-1.49-6.14-4.13-7-3.43s.77 6 2 7.53a3.25 3.25 0 1 0 5-4.1zM98 56.11c1.62-1.06 4.75-5.68 4.14-6.6s-6.09.13-7.7 1.19A3.25 3.25 0 1 0 98 56.11zM129.99 89.34c1.62-1.06 4.75-5.68 4.14-6.6s-6.09.13-7.7 1.19a3.25 3.25 0 1 0 3.56 5.41z" fill="#f5edd3"/><path d="M205.46 223.49c-40.12-8.66-113-13.72-150.64-31.93-26.82-13-81.61-59.54-33.31-82.8 14.73-7.09 33.21-10.82 51.53-10.52h.22a13.15 13.15 0 0 1-3-6.93h-.22c-22.47-.54-44.73 5.11-58.81 21.74-26.42 31.19-2.71 64 34.25 82.08 41.59 20.3 99.37 26.48 118.23 28.92 42.05 5.44 73.33 10.86 116.4 41.07l16.52 8.35c-15.64-17.93-52.43-41.61-91.17-49.98z" fill="#5d5e5e"/><path d="M272.15 257.6h-7.9a3 3 0 0 1-3-3v-6.29a3 3 0 0 1 3-3h7.9M378.88 245.31h7.9a3 3 0 0 1 3 3v6.29a3 3 0 0 1-3 3h-7.9" fill="none" stroke="#e6d1a1" stroke-miterlimit="10" stroke-width="3"/><path d="M266.47 293.46a9.36 9.36 0 0 0 9.35 9.36h99.79a9.35 9.35 0 0 0 9.36-9.35v-45.69l-118.5-.05z" fill="#ccb587"/><path d="M375.64 230.88h-23.67l-4.3-8.91h-43.84l-4.31 8.91h-23.67a9.36 9.36 0 0 0-9.36 9.35v7.58l118.5.05v-7.58a9.35 9.35 0 0 0-9.35-9.4z" fill="#e6d1a1"/><path d="M375.64 230.88h-23.67l-4.3-8.91h-21.93v25.84h59.25v-7.58a9.36 9.36 0 0 0-9.35-9.35z" fill="#e6d1a1" opacity=".35" style="mix-blend-mode:multiply"/><path d="M325.74 302.84h49.87a9.35 9.35 0 0 0 9.36-9.35V247.8h-59.25v55z" fill="#ccb587" opacity=".35" style="mix-blend-mode:multiply"/><path fill="#fff" d="M266.48 247.77h118.51v5.28H266.48z"/><path fill="#efefef" d="M325.73 247.77h59.26v5.28h-59.26z"/><circle cx="325.73" cy="266.3" r="32.76" fill="#e7e7e7"/><circle cx="325.73" cy="266.3" r="24.74" fill="#5d5e5e"/><path fill="#5d5e5e" d="M357.58 234.89h16.74v8.02h-16.74z"/><path fill="#5d5e5e" opacity=".35" style="mix-blend-mode:multiply" d="M357.58 234.89h16.74v8.02h-16.74z"/><path d="M325.74 233.53v65.52a32.76 32.76 0 0 0 0-65.52z" fill="#e7e7e7" opacity=".35" style="mix-blend-mode:multiply"/><path d="M325.74 241.55v49.48a24.74 24.74 0 0 0 0-49.48z" fill="#5d5e5e" opacity=".35" style="mix-blend-mode:multiply"/><rect x="57.37" y="131.79" width="267.4" height="30.25" rx="15.12" ry="15.12" fill="#931a1d"/><path d="M309.63 131.78H191.05v30.25h118.58a15.125 15.125 0 0 0 0-30.25z" fill="#931a1d" fill-rule="evenodd" opacity=".45" style="mix-blend-mode:multiply"/><path d="M303.4 158.68c0 3.05 0 5.45-.13 6.74s-.47 3.19-.6 4c-.18 1.16-.81 3-.13 4.47 1.08 2.34 4 2.37 4.94 0 .52-1.31-.1-3.28-.34-4.8-.12-.79-.43-2.42-.55-3.59-.14-1.33-.21-3.54-.21-6.81M296.2 158.68c0 1.83 0 3.26-.08 4s-.28 1.91-.36 2.4a4.69 4.69 0 0 0-.08 2.67 1.56 1.56 0 0 0 3 0c.31-.79-.06-2-.2-2.87-.07-.47-.25-1.45-.33-2.14s-.13-2.12-.13-4.07" fill="#77171b"/><path d="M131.34 148.17h-3.38v5.1h-1v-11.88h4.44c2.38 0 3.92 1.29 3.92 3.38a3.19 3.19 0 0 1-2.77 3.28l3.42 5.22h-1.21zm-3.38-1h3.38c1.87 0 2.86-.86 2.86-2.45s-1-2.43-2.86-2.43h-3.38v4.88zM147.61 148.91c0 3-1.66 4.54-4.59 4.54s-4.61-1.57-4.61-4.54v-7.53h1v7.3c0 2.54 1.22 3.82 3.58 3.82s3.57-1.28 3.57-3.82v-7.29h1v7.53zM151.27 141.39h4.21c2.65 0 3.89 1.17 3.89 3.19a2.57 2.57 0 0 1-2.12 2.67 2.75 2.75 0 0 1 2.45 2.79c0 2-1.5 3.22-4.23 3.22h-4.2v-11.88zm4.21 5.42c1.87 0 2.83-.74 2.83-2.23s-1-2.23-2.83-2.23h-3.19v4.47h3.19zm.2 5.51c2 0 3-.81 3-2.29s-1-2.27-3-2.27h-3.38v4.56h3.38zM165.97 148.68v4.63h-1v-4.63l-4.23-7.26h1.22l3.51 6.19 3.53-6.19h1.21zM187.56 147.33c0 3.76-2.11 6.12-5.47 6.12s-5.47-2.36-5.47-6.12 2.11-6.12 5.47-6.12 5.47 2.35 5.47 6.12zm-9.88 0c0 3.21 1.69 5.17 4.41 5.17s4.41-2 4.41-5.17-1.69-5.17-4.41-5.17-4.42 1.96-4.42 5.17zM199.78 153.27h-1.28l-6-9-1-1.75.05 1.6v9.16h-1V141.4h1.28l6 9 1 1.78-.05-1.6v-9.16h1v11.88zM213.71 148.17h-3.38v5.1h-1v-11.88h4.43c2.38 0 3.92 1.29 3.92 3.38a3.19 3.19 0 0 1-2.77 3.28l3.42 5.22h-1.21zm-3.38-1h3.38c1.87 0 2.86-.86 2.86-2.45s-1-2.43-2.86-2.43h-3.38v4.88zM227.53 149.68h-5.62l-1.42 3.62h-1.09l4.72-11.88h1.28l4.7 11.88h-1.08zm-.38-1l-1.94-5-.47-1.37-.43 1.31-2 5h4.86zM233.35 153.27h-1v-11.88h1v11.88zM245.19 152.32v1h-8.07v-11.88h1v10.93h7zM255.67 143.82l-.88.7a3.34 3.34 0 0 0-3.6-2.36c-2.09 0-3.3 1-3.3 2.36s.85 1.91 3.66 2.39c3.15.52 4.27 1.48 4.27 3.26 0 2-1.8 3.28-4.48 3.28-2.5 0-4.27-1.06-4.93-2.79l.88-.7c.52 1.64 2 2.54 4.07 2.54s3.4-.81 3.4-2.27c0-1.19-.86-1.87-3.51-2.32-3.29-.56-4.43-1.49-4.43-3.28s1.64-3.42 4.36-3.42a4.48 4.48 0 0 1 4.49 2.61z" fill="#fff"/><rect x="57.4" y="101.58" width="267.4" height="30.25" rx="15.12" ry="15.12" fill="#f9f6e5"/><path d="M309.66 101.57H191.08v30.25h118.58a15.125 15.125 0 0 0 0-30.25z" fill="#f9f6e5" fill-rule="evenodd" style="mix-blend-mode:multiply"/><path d="M303.47 128.5c0 3.05 0 5.45-.13 6.74s-.47 3.19-.6 4c-.18 1.16-.81 3-.13 4.47 1.08 2.34 4 2.37 4.94 0 .52-1.31-.1-3.28-.34-4.8-.12-.79-.43-2.42-.55-3.59-.14-1.33-.21-3.54-.21-6.81M296.23 128.5c0 1.83 0 3.26-.08 4s-.28 1.91-.36 2.4a4.69 4.69 0 0 0-.08 2.67 1.56 1.56 0 0 0 3 0c.31-.79-.06-2-.2-2.87-.07-.47-.25-1.45-.33-2.14s-.13-2.12-.13-4.07" fill="#f6efcf"/><path d="M147.98 118.68c0 2.58-1.4 4.14-3.83 4.14s-3.83-1.57-3.4-4l1-.22c-.29 2.16.47 3.26 2.41 3.26s2.84-1.24 2.84-3.42v-7.69h1v7.93zM158.06 119.01h-5.66l-1.42 3.62h-1.08l4.72-11.88h1.22l4.7 11.88h-1.08zm-.38-1l-1.94-5-.47-1.37-.43 1.31-2 5h4.86zM166.16 122.63h-1.19l-4.57-11.88h1.1l3.4 9 .67 2 .67-1.95 3.4-9h1.1zM178.67 119.01h-5.62l-1.42 3.62h-1.08l4.72-11.88h1.22l4.7 11.88h-1.08zm-.38-1l-1.94-5-.47-1.37-.43 1.31-2 5h4.86zM191.53 113.18l-.88.7a3.34 3.34 0 0 0-3.6-2.36c-2.09 0-3.29 1-3.29 2.36s.85 1.91 3.66 2.39c3.15.52 4.27 1.48 4.27 3.26 0 2-1.8 3.28-4.48 3.28-2.5 0-4.27-1.06-4.93-2.79l.88-.7c.52 1.64 2 2.54 4.07 2.54s3.4-.81 3.4-2.27c0-1.19-.86-1.87-3.51-2.32-3.29-.56-4.43-1.49-4.43-3.28s1.64-3.42 4.36-3.42a4.48 4.48 0 0 1 4.48 2.61zM199.23 122.81c-3.29 0-5.42-2.36-5.42-6.12s2.14-6.12 5.4-6.12c2.38 0 3.91 1 4.61 2.9l-1 .47a3.36 3.36 0 0 0-3.53-2.41c-2.65 0-4.41 1.95-4.41 5.17s1.71 5.17 4.36 5.17a3.66 3.66 0 0 0 3.75-2.63l1 .38a4.74 4.74 0 0 1-4.76 3.19zM211.07 117.53h-3.38v5.1h-1v-11.88h4.43c2.38 0 3.92 1.3 3.92 3.38a3.19 3.19 0 0 1-2.77 3.28l3.42 5.22h-1.21zm-3.38-1h3.38c1.87 0 2.86-.87 2.86-2.45s-1-2.43-2.86-2.43h-3.38v4.88zM219.31 122.63h-1v-11.88h1v11.88zM231.11 114.26c0 2.18-1.57 3.51-4 3.51h-3v4.86h-1v-11.88h4c2.43-.01 4 1.33 4 3.51zm-1.06 0c0-1.64-1-2.56-3.08-2.56h-2.84v5.11h2.84c2.03 0 3.07-.92 3.07-2.55zM241.91 111.68h-4.29v10.93h-1v-10.93h-4.3v-1h9.61v1z" fill="#231f20"/></g></svg>