<svg xmlns="http://www.w3.org/2000/svg" viewBox="0 0 347.68 295.1"><defs><clipPath id="a" transform="translate(-1900.63 -8459.97)"><rect x="1913.8" y="8652.28" width="267.4" height="30.25" rx="15.12" ry="15.12" transform="rotate(180 2047.505 8667.405)" fill="none"/></clipPath><clipPath id="b" transform="translate(-1900.63 -8459.97)"><rect x="1913.8" y="8622.04" width="267.4" height="30.25" rx="15.12" ry="15.12" transform="rotate(-180 2047.505 8637.16)" fill="none"/></clipPath></defs><title>sig_fitbit</title><g data-name="Signature Stacks" style="isolation:isolate"><path d="M267.52 222.56v1.15c0 28.37-18.87 51.58-41.95 51.58H68.18c-23.07 0-41.95-23.21-41.95-51.58v-1.15h241.29z" fill="#f7aa40" fill-rule="evenodd"/><path d="M267.52 222.56v1.15c0 28.37-18.87 51.58-41.95 51.58h-78.7v-52.72h120.64z" fill="#f7aa40" fill-rule="evenodd" opacity=".45" style="mix-blend-mode:multiply"/><rect x="13.17" y="192.31" width="267.4" height="30.25" rx="15.12" ry="15.12" fill="#51271a"/><g clip-path="url(#a)" opacity=".45" style="mix-blend-mode:multiply"><path d="M334.8 198.03l-14.5-12.83 3.58-3.17a11.57 11.57 0 0 0-1.49-.1H320l-1.7 1.51-1.7-1.51h-4l3.7 3.27-14.83 13.13-14.83-13.13 3.7-3.27h-4l-1.7 1.51-1.7-1.51h-4l3.7 3.27-14.83 13.13-14.83-13.13 3.7-3.27h-4l-1.7 1.51-1.7-1.51h-4l3.7 3.27-14.83 13.13-14.83-13.13 3.7-3.27h-4l-1.7 1.51-1.7-1.51h-4l3.7 3.27-14.83 13.13-14.83-13.13 3.7-3.27h-4l-1.7 1.51-1.7-1.51h-2.16a11.63 11.63 0 0 0-1.69.14l3.55 3.14-14.29 12.62v.2l-14.47-12.81 3.58-3.17a11.57 11.57 0 0 0-1.49-.1h-2.39l-1.7 1.51-1.7-1.51h-4l3.7 3.27-14.83 13.13-14.83-13.13 3.7-3.27h-4l-1.7 1.51-1.7-1.51h-4l3.7 3.27-14.87 13.12-14.83-13.13 3.7-3.27h-4l-1.7 1.51-1.7-1.51h-4l3.7 3.27-14.83 13.13-14.83-13.13 3.7-3.27h-4l-1.7 1.51-1.7-1.51h-4l3.7 3.27-14.83 13.13-14.83-13.13 3.7-3.27h-4l-1.7 1.51-1.7-1.51h-2.15a11.63 11.63 0 0 0-1.69.14l3.55 3.14-14.26 12.62v4.55l14.26 12.62-6.91 6.12a11.68 11.68 0 0 0 2.92 1l6-5.3 6.22 5.51h4l-8.22-7.28 14.83-13.13 14.83 13.13-8.22 7.28h4l6.22-5.51 6.22 5.51h4l-8.22-7.28 14.83-13.13 14.83 13.13-8.22 7.28h4l6.22-5.51 6.22 5.51h4l-8.22-7.28 14.83-13.13 14.83 13.13-8.22 7.28h4l6.22-5.51 6.22 5.51h4l-8.22-7.28 14.83-13.13 14.83 13.13-8.22 7.28h4l6.22-5.51 6 5.33a11.79 11.79 0 0 0 3-.91l-7-6.19 14.47-12.81v.19l14.26 12.62-6.91 6.12a11.68 11.68 0 0 0 2.92 1l6-5.3 6.22 5.51h4l-8.22-7.28 14.83-13.13 14.83 13.13-8.22 7.28h4l6.22-5.51 6.22 5.51h4l-8.22-7.28 14.83-13.13 14.86 13.05-8.22 7.28h4l6.22-5.51 6.22 5.51h4l-8.22-7.28 14.83-13.13 14.83 13.13-8.22 7.28h4l6.22-5.51 6.22 5.51h4l-8.22-7.28 14.83-13.13 14.83 13.13-8.22 7.28h4l6.22-5.51 6 5.33a11.79 11.79 0 0 0 3-.91l-7-6.19 14.5-12.83v-4.17zM16.26 213.22L1.43 200.09l14.83-13.13 14.83 13.13zm33.66 0l-14.83-13.13 14.83-13.13 14.83 13.13zm33.66 0l-14.83-13.13 14.83-13.13 14.83 13.13zm33.66 0l-14.87-13.11 14.83-13.13 14.83 13.13zm33.66 0l-14.83-13.13 14.83-13.13 14.83 13.13zm32.74 0l-14.83-13.13 14.83-13.13 14.83 13.13zm33.66 0l-14.83-13.13 14.83-13.13 14.83 13.13zm33.66 0l-14.83-13.13 14.83-13.13 14.83 13.13zm33.66 0l-14.83-13.13 14.83-13.13 14.83 13.13zm33.66 0l-14.83-13.13 14.83-13.13 14.83 13.13z" fill="#5d3a07"/></g><path d="M265.45 192.31H146.87v30.25h118.58a15.125 15.125 0 0 0 0-30.25z" fill="#51271a" fill-rule="evenodd" opacity=".45" style="mix-blend-mode:multiply"/><path d="M35.55 57.31h-3.5s2.69-3.05 6.06-3.44zM258.62 57.31h3.5s-2.69-3.05-6.06-3.44z" fill="#ccb587"/><path d="M134.18 208.97c0 2.58-1.4 4.14-3.83 4.14s-3.83-1.57-3.4-4l1-.22c-.29 2.16.47 3.26 2.41 3.26s2.84-1.24 2.84-3.42v-7.7h1v7.92zM144.27 209.31h-5.62l-1.42 3.62h-1.08l4.72-11.88h1.22l4.7 11.88h-1.08zm-.38-1l-1.94-5-.47-1.37-.43 1.31-2 5h4.86zM152.37 212.93h-1.19l-4.57-11.88h1.1l3.4 9 .67 2 .67-1.95 3.4-9h1.1zM164.87 209.31h-5.62l-1.42 3.62h-1.08l4.72-11.88h1.22l4.7 11.88h-1.08zm-.38-1l-1.94-5-.47-1.37-.43 1.31-2 5h4.86z" fill="#fff"/><rect x="13.18" y="162.07" width="267.4" height="30.25" rx="15.12" ry="15.12" fill="#51271a"/><g clip-path="url(#b)" opacity=".45" style="mix-blend-mode:multiply"><path d="M334.8 167.8l-14.5-12.83 3.58-3.17a11.57 11.57 0 0 0-1.49-.1H320l-1.7 1.51-1.7-1.51h-4l3.7 3.27-14.83 13.13-14.83-13.13 3.7-3.27h-4l-1.7 1.51-1.7-1.51h-4l3.7 3.27-14.83 13.13-14.83-13.13 3.7-3.27h-4l-1.7 1.51-1.7-1.51h-4l3.7 3.27-14.83 13.13-14.83-13.13 3.7-3.27h-4l-1.7 1.51-1.7-1.51h-4l3.7 3.27-14.83 13.13-14.83-13.13 3.7-3.27h-4l-1.7 1.51-1.7-1.51h-2.16a11.63 11.63 0 0 0-1.69.14l3.55 3.14-14.29 12.61v.19l-14.47-12.81 3.58-3.17a11.57 11.57 0 0 0-1.49-.1h-2.39l-1.7 1.51-1.7-1.51h-4l3.7 3.27-14.83 13.13-14.83-13.13 3.7-3.27h-4l-1.7 1.51-1.7-1.51h-4l3.7 3.27-14.87 13.12-14.83-13.13 3.7-3.27h-4l-1.7 1.51-1.7-1.51h-4l3.7 3.27-14.83 13.13-14.83-13.13 3.7-3.27h-4l-1.7 1.51-1.7-1.51h-4l3.7 3.27-14.83 13.13-14.83-13.13 3.7-3.27h-4l-1.7 1.51-1.7-1.51h-2.15a11.63 11.63 0 0 0-1.69.14l3.55 3.14-14.26 12.62v4.55l14.26 12.62-6.91 6.12a11.68 11.68 0 0 0 2.92 1l6-5.3 6.22 5.51h4l-8.22-7.28 14.83-13.13 14.83 13.13-8.22 7.28h4l6.22-5.51 6.22 5.51h4l-8.22-7.28 14.83-13.13 14.83 13.13-8.19 7.22h4l6.22-5.51 6.22 5.51h4l-8.22-7.28 14.78-13.12 14.83 13.13-8.22 7.28h4l6.22-5.51 6.22 5.51h4l-8.22-7.28 14.83-13.13 14.83 13.13-8.22 7.28h4l6.22-5.51 6 5.33a11.79 11.79 0 0 0 3-.91l-7-6.19 14.47-12.81v.19l14.26 12.62-6.91 6.12a11.68 11.68 0 0 0 2.92 1l6-5.3 6.22 5.51h4l-8.22-7.28 14.83-13.13 14.83 13.13-8.22 7.28h4l6.22-5.51 6.22 5.51h4l-8.22-7.28 14.83-13.13 14.83 13.13-8.22 7.28h4l6.22-5.51 6.22 5.51h4l-8.22-7.28 14.83-13.13 14.83 13.13-8.21 7.22h4l6.22-5.51 6.22 5.51h4l-8.22-7.28 14.83-13.13 14.83 13.13-8.22 7.28h4l6.22-5.51 6 5.33a11.79 11.79 0 0 0 3-.91l-7-6.19 14.5-12.83v-4.13zM16.26 183.03L1.43 169.9l14.83-13.13 14.83 13.13zm33.66 0L35.09 169.9l14.83-13.13 14.83 13.13zm33.66 0L68.75 169.9l14.83-13.13 14.83 13.13zm33.66 0l-14.87-13.17 14.83-13.13 14.83 13.13zm33.66 0l-14.83-13.13 14.83-13.13 14.83 13.13zm32.74 0l-14.83-13.13 14.83-13.13 14.83 13.13zm33.66 0l-14.83-13.13 14.83-13.13 14.83 13.13zm33.66 0l-14.83-13.13 14.83-13.13 14.83 13.13zm33.66 0l-14.83-13.13 14.83-13.13 14.83 13.13zm33.66 0l-14.83-13.13 14.83-13.13 14.83 13.13z" fill="#5d3a07"/></g><path d="M265.45 162.03H146.87v30.25h118.58a15.125 15.125 0 0 0 0-30.25z" fill="#51271a" fill-rule="evenodd" opacity=".45" style="mix-blend-mode:multiply"/><path d="M102.37 176.75c0 3.76-2.11 6.12-5.47 6.12s-5.47-2.36-5.47-6.12 2.11-6.12 5.47-6.12 5.47 2.4 5.47 6.12zm-9.88 0c0 3.21 1.69 5.17 4.41 5.17s4.41-2 4.41-5.17-1.69-5.17-4.41-5.17-4.4 1.96-4.4 5.17zM105.42 170.81h4.21c2.65 0 3.89 1.17 3.89 3.19a2.57 2.57 0 0 1-2.12 2.67 2.75 2.75 0 0 1 2.45 2.79c0 2-1.5 3.22-4.23 3.22h-4.2V170.8zm4.21 5.42c1.87 0 2.83-.74 2.83-2.23s-1-2.23-2.83-2.23h-3.19v4.47h3.19zm.2 5.51c2 0 3-.81 3-2.29s-1-2.27-3-2.27h-3.38v4.56h3.38zM122.99 178.73c0 2.57-1.4 4.14-3.83 4.14s-3.83-1.57-3.4-4l1-.22c-.29 2.16.47 3.26 2.41 3.26s2.84-1.24 2.84-3.42v-7.69h1v7.92zM135.09 181.73v1h-8.44v-11.88h8.16v1h-7.13v4.41h5.62v1h-5.62v4.61h7.42zM142.12 182.87c-3.29 0-5.42-2.36-5.42-6.12s2.14-6.12 5.4-6.12c2.38 0 3.91 1 4.61 2.9l-1 .47a3.36 3.36 0 0 0-3.53-2.41c-2.65 0-4.41 1.95-4.41 5.17s1.71 5.17 4.36 5.17a3.66 3.66 0 0 0 3.75-2.63l1 .38a4.74 4.74 0 0 1-4.76 3.19zM157.68 171.76h-4.31v10.93h-1v-10.93h-4.3v-1h9.62v1zM161.02 182.69h-1v-11.88h1v11.88zM169.1 182.69h-1.19l-4.57-11.88h1.1l3.4 9 .67 2 .67-1.94 3.4-9h1.1zM184.44 181.73v1H176v-11.88h8.16v1h-7.13v4.41h5.62v1h-5.62v4.61h7.42zM197.54 182.87c-3.29 0-5.42-2.36-5.42-6.12s2.14-6.12 5.4-6.12c2.38 0 3.91 1 4.61 2.9l-1 .47a3.36 3.36 0 0 0-3.53-2.41c-2.65 0-4.41 1.95-4.41 5.17s1.71 5.17 4.36 5.17a3.66 3.66 0 0 0 3.75-2.63l1 .38a4.74 4.74 0 0 1-4.76 3.19z" fill="#fff"/><path d="M26.23 90.77c0 4.69 4.58 10.8 8.4 10.8h224.48q8.4 0 8.4-8.4c0-46.77-40.18-79-83.28-89.08-24.49-5.72-57.84-5.73-81.79 1.81-39.65 12.49-76.21 46.18-76.21 84.87z" fill="#f7aa40" fill-rule="evenodd"/><path d="M184.23 4.03a171.13 171.13 0 0 0-37.36-4.07v101.56h112.24q8.4 0 8.4-8.4c.01-46.73-40.14-78.97-83.28-89.09z" fill="#f7aa40" fill-rule="evenodd" opacity=".45" style="mix-blend-mode:multiply"/><path d="M159.6 58.51c-1.54-1.17-4.35-6-3.68-6.87s6.06.54 7.6 1.72a3.25 3.25 0 1 1-3.92 5.15zM190.02 63.8c-.09-1.93 1.8-7.18 2.91-7.23s3.47 5 3.56 6.93a3.25 3.25 0 1 1-6.47.3zM167 84.7c-.09-1.93 1.8-7.18 2.91-7.23s3.47 5 3.56 6.93a3.25 3.25 0 1 1-6.47.3zM157.58 20.69c1.78-.76 7.36-.82 7.79.2s-3.47 5-5.25 5.76a3.25 3.25 0 1 1-2.54-5.96zM244.8 79.91c1.78-.76 7.36-.82 7.79.2s-3.47 5-5.25 5.76a3.25 3.25 0 1 1-2.54-5.96zM189.37 39.88c-1.34 1.4-6.45 3.64-7.24 2.88s1.23-6 2.57-7.36a3.25 3.25 0 1 1 4.67 4.48zM226.13 68.45c-1.34 1.4-6.45 3.64-7.24 2.88s1.23-6 2.57-7.36a3.25 3.25 0 1 1 4.67 4.48zM211.46 34.25c1.23-1.49 6.14-4.13 7-3.43s-.77 6-2 7.53a3.25 3.25 0 1 1-5-4.1zM237.37 56.11c-1.62-1.06-4.75-5.68-4.14-6.6s6.09.13 7.7 1.19a3.25 3.25 0 1 1-3.56 5.41zM205.37 89.34c-1.62-1.06-4.75-5.68-4.14-6.6s6.09.13 7.7 1.19a3.25 3.25 0 1 1-3.56 5.41zM131.74 58.51c1.54-1.17 4.35-6 3.68-6.87s-6.06.54-7.6 1.72a3.25 3.25 0 1 0 3.92 5.15zM101.37 63.8c.09-1.93-1.8-7.18-2.91-7.23s-3.47 5-3.56 6.93a3.25 3.25 0 1 0 6.47.3zM124.37 84.7c.09-1.93-1.8-7.18-2.91-7.23s-3.47 5-3.56 6.93a3.25 3.25 0 1 0 6.47.3zM133.77 20.69c-1.78-.76-7.36-.82-7.79.2s3.47 5 5.25 5.76a3.25 3.25 0 1 0 2.54-5.96zM46.54 79.91c-1.78-.76-7.36-.82-7.79.2s3.47 5 5.25 5.76a3.25 3.25 0 1 0 2.54-5.96zM102 39.88c1.34 1.4 6.45 3.64 7.24 2.88s-1.23-6-2.57-7.36a3.25 3.25 0 1 0-4.67 4.48zM65.22 68.45c1.34 1.4 6.45 3.64 7.24 2.88s-1.23-6-2.57-7.36a3.25 3.25 0 1 0-4.67 4.48zM79.88 34.25c-1.23-1.49-6.14-4.13-7-3.43s.77 6 2 7.53a3.25 3.25 0 1 0 5-4.1zM53.94 56.11c1.62-1.06 4.75-5.68 4.14-6.6s-6.09.13-7.7 1.19a3.25 3.25 0 1 0 3.56 5.41zM85.93 89.34c1.62-1.06 4.75-5.68 4.14-6.6s-6.09.13-7.7 1.19a3.25 3.25 0 1 0 3.56 5.41z" fill="#f5edd3"/><path d="M270.3 92.54a79 79 0 0 0-8.18-35.22h-230a69.29 69.29 0 0 0-8.64 32.77 11.53 11.53 0 0 0 1.51 5.27h245.06a13.12 13.12 0 0 0 .25-2.82z" fill="#e6d1a1" fill-rule="evenodd"/><path d="M270.37 92.54a79 79 0 0 0-8.18-35.22H146.93v38H270.1a13.12 13.12 0 0 0 .27-2.78z" fill="#e6d1a1" fill-rule="evenodd" opacity=".35" style="mix-blend-mode:multiply"/><path d="M23.85 83.03h245.88a78.51 78.51 0 0 0-2.44-12.24H26.44a66.87 66.87 0 0 0-2.59 12.24z" fill="#fff"/><path d="M146.87 83.03h122.86a78.51 78.51 0 0 0-2.44-12.24H146.87v12.24z" fill="#f1f2f2"/><rect x="13.13" y="131.8" width="267.4" height="30.25" rx="15.12" ry="15.12" fill="#bf2026"/><path d="M265.37 131.8H146.83v30.23h118.54a15.12 15.12 0 0 0 0-30.23z" fill="#bf2026" fill-rule="evenodd" opacity=".45" style="mix-blend-mode:multiply"/><path d="M146.86 139.17H30.15c-9.25 0-11.39 7.75-11.39 7.75 0-11.75 11.39-11.75 11.39-11.75h116.71v4z" fill="#ed5d6f" fill-rule="evenodd" opacity=".65" style="mix-blend-mode:screen"/><path d="M104.03 149.51c0 2.58-1.4 4.14-3.83 4.14s-3.83-1.57-3.4-4l1-.22c-.29 2.16.47 3.26 2.41 3.26s2.84-1.24 2.84-3.42v-7.69h1v7.92zM114.11 149.86h-5.62l-1.42 3.62h-1.08l4.72-11.88h1.22l4.7 11.88h-1.08zm-.38-1l-1.94-5-.47-1.37-.43 1.31-2 5h4.86zM122.21 153.48h-1.19l-4.57-11.88h1.1l3.4 9 .67 2 .67-1.94 3.4-9h1.1zM134.72 149.86h-5.62l-1.42 3.62h-1.08l4.72-11.88h1.22l4.7 11.88h-1.08zm-.38-1l-1.94-5-.47-1.37-.43 1.31-2 5h4.87zM147.57 144.03l-.88.7a3.34 3.34 0 0 0-3.6-2.36c-2.09 0-3.29 1-3.29 2.36s.85 1.91 3.66 2.39c3.15.52 4.27 1.48 4.27 3.26 0 2-1.8 3.28-4.48 3.28-2.5 0-4.27-1.06-4.93-2.79l.88-.7c.52 1.64 2 2.54 4.07 2.54s3.4-.81 3.4-2.27c0-1.19-.86-1.87-3.51-2.32-3.29-.56-4.43-1.49-4.43-3.28s1.64-3.42 4.36-3.42a4.48 4.48 0 0 1 4.48 2.61zM155.28 153.66c-3.29 0-5.42-2.36-5.42-6.12s2.14-6.12 5.4-6.12c2.38 0 3.91 1 4.61 2.9l-1 .47a3.36 3.36 0 0 0-3.53-2.41c-2.65 0-4.41 1.94-4.41 5.17s1.71 5.17 4.36 5.17a3.66 3.66 0 0 0 3.75-2.63l1 .38a4.74 4.74 0 0 1-4.76 3.19zM167.12 148.38h-3.38v5.1h-1V141.6h4.43c2.38 0 3.92 1.3 3.92 3.38a3.19 3.19 0 0 1-2.77 3.28l3.42 5.22h-1.21zm-3.38-1h3.38c1.87 0 2.86-.86 2.86-2.45s-1-2.43-2.86-2.43h-3.38v4.88zM175.37 153.48h-1V141.6h1v11.88zM187.16 145.1c0 2.18-1.57 3.51-4 3.51h-3v4.86h-1v-11.88h4c2.43 0 4 1.33 4 3.51zm-1.06 0c0-1.64-1-2.56-3.08-2.56h-2.84v5.11h2.84c2.03.01 3.07-.91 3.07-2.55zM197.95 142.55h-4.29v10.93h-1v-10.93h-4.29v-1h9.61v1z" fill="#fff"/><rect x="13.24" y="101.58" width="267.4" height="30.25" rx="15.12" ry="15.12" fill="#eac01e"/><path d="M265.49 101.57H146.91v30.25h118.58a15.125 15.125 0 0 0 0-30.25z" fill="#eac01e" fill-rule="evenodd" opacity=".45" style="mix-blend-mode:multiply"/><path d="M259.3 128.5c0 3.05 0 5.45-.13 6.74s-.47 3.19-.6 4c-.18 1.16-.81 3-.13 4.47 1.08 2.34 4 2.37 4.94 0 .52-1.31-.1-3.28-.34-4.8-.12-.79-.43-2.42-.55-3.59-.14-1.33-.21-3.54-.21-6.81M252.06 128.5c0 1.83 0 3.26-.08 4s-.28 1.91-.36 2.4a4.69 4.69 0 0 0-.08 2.67 1.56 1.56 0 0 0 3 0c.31-.79-.06-2-.2-2.87-.07-.47-.25-1.45-.33-2.14s-.13-2.12-.13-4.07" fill="#e0af35"/><path d="M120.21 123.47h-1.28l-6-9-1-1.75.05 1.6v9.17h-1v-11.88h1.28l6 9 1 1.78-.05-1.6v-9.17h1v11.88zM134.2 117.53c0 3.76-2.11 6.12-5.47 6.12s-5.47-2.36-5.47-6.12 2.11-6.12 5.47-6.12 5.47 2.35 5.47 6.12zm-9.88 0c0 3.21 1.69 5.17 4.41 5.17s4.41-2 4.41-5.17-1.69-5.17-4.41-5.17-4.42 1.96-4.42 5.17zM146.94 117.45c0 3.89-2.16 6-5.94 6h-3.76v-11.88H141c3.78.01 5.94 2.09 5.94 5.88zm-1.08 0c0-3.13-1.71-4.92-4.77-4.92h-2.83v10h2.83c3.06-.02 4.77-1.83 4.77-5.08zM158.42 122.51v1h-8.44v-11.88h8.16v1h-7.13v4.41h5.62v1h-5.62v4.61h7.42zM162.18 122.73a.89.89 0 1 1-.9-.9.85.85 0 0 1 .9.9zM171.37 119.51c0 2.58-1.4 4.14-3.83 4.14s-3.83-1.57-3.4-4l1-.22c-.29 2.16.47 3.26 2.41 3.26s2.84-1.24 2.84-3.42v-7.69h1v7.92zM183.23 114.03l-.88.7a3.35 3.35 0 0 0-3.6-2.36c-2.09 0-3.29 1-3.29 2.36s.85 1.91 3.66 2.39c3.15.52 4.27 1.48 4.27 3.26 0 2-1.8 3.28-4.48 3.28-2.5 0-4.27-1.06-4.93-2.79l.88-.7c.52 1.64 2 2.54 4.07 2.54s3.4-.81 3.4-2.27c0-1.19-.86-1.87-3.51-2.32-3.29-.56-4.43-1.49-4.43-3.28s1.64-3.42 4.36-3.42a4.48 4.48 0 0 1 4.48 2.61z" fill="#231f20"/><rect x="207.77" y="259.93" width="139.91" height="17.34" rx="6.83" ry="6.83" fill="#4b4c4d"/><rect x="231.38" y="237.29" width="19.27" height="57.81" rx="6.83" ry="6.83" fill="#5d5e5e"/><rect x="217.41" y="245.96" width="14.45" height="43.36" rx="5.12" ry="5.12" fill="#5d5e5e"/><path d="M340.85 259.93h-63.13v17.34h63.13a6.83 6.83 0 0 0 6.83-6.83v-3.69a6.83 6.83 0 0 0-6.83-6.82z" fill="#4b4c4d" opacity=".35" style="mix-blend-mode:multiply"/><rect x="303.16" y="237.29" width="19.27" height="57.81" rx="6.83" ry="6.83" fill="#4b4c4d"/><rect x="321.96" y="245.96" width="14.45" height="43.36" rx="5.12" ry="5.12" fill="#4b4c4d"/></g></svg>