<svg data-name="Signature Stacks" xmlns="http://www.w3.org/2000/svg" viewBox="0 0 95.41 23.71"><title>sig_logo_fitbit</title><path d="M35.44 8.37h-4.48V6.18c0-2.53.69-3.47 1.43-4a5.74 5.74 0 0 1 3-.54.85.85 0 0 0 0-1.7 7.2 7.2 0 0 0-4 .8c-1.36.85-2.24 2.58-2.22 5.39v2.19h-1.75a.85.85 0 1 0 0 1.7h1.75v12.74a.85.85 0 1 0 1.7 0V10.02h4.48a.85.85 0 1 0 .09-1.65zM55.46 21.97a5.71 5.71 0 0 1-3.25-.57c-.65-.46-1.23-1.47-1.23-4v-7.26h4.48a.85.85 0 1 0 0-1.7h-4.48V.89a.85.85 0 1 0-1.7 0v7.55h-1.75a.85.85 0 0 0 0 1.7h1.75v7.26c0 2.77.65 4.49 1.94 5.43a7.12 7.12 0 0 0 4.24.89.875.875 0 1 0 0-1.75zM94.56 21.97c-1.84 0-3-.19-3.5-.69s-1-1.53-1-3.89v-7.3h4.48a.85.85 0 0 0 0-1.7h-4.48V.84a.85.85 0 0 0-1.7 0v7.55h-1.74a.85.85 0 1 0 0 1.7h1.75v7.3c0 2.49.39 4.13 1.57 5.17s2.73 1.09 4.61 1.11a.85.85 0 0 0 .01-1.7zM40.62 22.82V9.23a.85.85 0 0 1 .85-.85.85.85 0 0 1 .85.85v13.59a.85.85 0 0 1-.85.85.85.85 0 0 1-.85-.85zM80.05 22.82V9.23a.85.85 0 0 1 .85-.85.85.85 0 0 1 .85.85v13.59a.85.85 0 0 1-.85.85.85.85 0 0 1-.85-.85zM68.27 8.32a7.68 7.68 0 0 0-6 2.88V.85a.85.85 0 1 0-1.7 0v15.68a.81.81 0 0 0 0 .17 7.69 7.69 0 1 0 7.7-8.38zm0 13.69a6 6 0 1 1 6-6 6 6 0 0 1-6 5.99z" fill="#fff"/><path d="M40.24 4.96a1.71 1.71 0 0 1-.5-1.2 1.71 1.71 0 0 1 .5-1.2 1.7 1.7 0 0 1 1.2-.5 1.71 1.71 0 0 1 1.2.5 1.7 1.7 0 0 1 .5 1.2 1.71 1.71 0 0 1-.5 1.2 1.71 1.71 0 0 1-1.2.5 1.71 1.71 0 0 1-1.2-.5zM79.7 4.96a1.71 1.71 0 0 1-.5-1.2 1.71 1.71 0 0 1 .5-1.2 1.71 1.71 0 0 1 1.2-.5 1.71 1.71 0 0 1 1.2.5 1.72 1.72 0 0 1 .5 1.2 1.72 1.72 0 0 1-.5 1.2 1.72 1.72 0 0 1-1.2.5 1.71 1.71 0 0 1-1.2-.5zM8.51 21.13a1.38 1.38 0 0 1-.4-1 1.37 1.37 0 0 1 .4-1 1.39 1.39 0 0 1 1-.4 1.38 1.38 0 0 1 1 .4 1.38 1.38 0 0 1 .4 1 1.38 1.38 0 0 1-.4 1 1.39 1.39 0 0 1-1 .4 1.39 1.39 0 0 1-1-.4z" fill="#48c2c5"/><path d="M8.51 13.02a1.38 1.38 0 0 1-.4-1 1.38 1.38 0 0 1 .4-1 1.38 1.38 0 0 1 1-.4 1.39 1.39 0 0 1 1 .4 1.38 1.38 0 0 1 .4 1 1.38 1.38 0 0 1-.4 1 1.39 1.39 0 0 1-1 .4 1.39 1.39 0 0 1-1-.4z" fill="#fff"/><path d="M8.51 4.91a1.39 1.39 0 0 1-.4-1 1.39 1.39 0 0 1 .4-1 1.38 1.38 0 0 1 1-.4 1.38 1.38 0 0 1 1 .4 1.38 1.38 0 0 1 .4 1 1.38 1.38 0 0 1-.4 1 1.38 1.38 0 0 1-1 .4 1.38 1.38 0 0 1-1-.4zM8.47 8.93a1.37 1.37 0 0 1-.36-1 1.38 1.38 0 0 1 .44-1 1.38 1.38 0 0 1 1-.36 1.38 1.38 0 0 1 1 .44 1.39 1.39 0 0 1 .37 1 1.38 1.38 0 0 1-.44 1 1.38 1.38 0 0 1-1 .37 1.38 1.38 0 0 1-1-.44zM8.51 17.07a1.39 1.39 0 0 1-.4-1 1.38 1.38 0 0 1 .4-1 1.38 1.38 0 0 1 1-.4 1.38 1.38 0 0 1 1 .4 1.38 1.38 0 0 1 .4 1 1.39 1.39 0 0 1-.4 1 1.39 1.39 0 0 1-1 .4 1.39 1.39 0 0 1-1-.4z" fill="#48c2c5"/><path d="M12.56 13.02a1.39 1.39 0 0 1-.4-1 1.38 1.38 0 0 1 .4-1 1.38 1.38 0 0 1 1-.4 1.38 1.38 0 0 1 1 .4 1.38 1.38 0 0 1 .4 1 1.39 1.39 0 0 1-.4 1 1.39 1.39 0 0 1-1 .4 1.38 1.38 0 0 1-1-.4zM12.56 8.97a1.38 1.38 0 0 1-.4-1 1.39 1.39 0 0 1 .4-1 1.39 1.39 0 0 1 1-.4 1.38 1.38 0 0 1 1 .4 1.39 1.39 0 0 1 .4 1 1.38 1.38 0 0 1-.4 1 1.38 1.38 0 0 1-1 .4 1.39 1.39 0 0 1-1-.4zM12.56 17.07a1.38 1.38 0 0 1-.4-1 1.38 1.38 0 0 1 .4-1 1.38 1.38 0 0 1 1-.4 1.38 1.38 0 0 1 1 .4 1.39 1.39 0 0 1 .4 1 1.39 1.39 0 0 1-.4 1 1.39 1.39 0 0 1-1 .4 1.39 1.39 0 0 1-1-.4zM16.62 13.02a1.38 1.38 0 0 1-.4-1 1.38 1.38 0 0 1 .4-1 1.38 1.38 0 0 1 1-.4 1.38 1.38 0 0 1 1 .4 1.38 1.38 0 0 1 .4 1 1.39 1.39 0 0 1-.4 1 1.38 1.38 0 0 1-1 .4 1.38 1.38 0 0 1-1-.4zM4.45 13.02a1.39 1.39 0 0 1-.4-1 1.38 1.38 0 0 1 .4-1 1.39 1.39 0 0 1 1-.4 1.39 1.39 0 0 1 1 .4 1.39 1.39 0 0 1 .4 1 1.39 1.39 0 0 1-.4 1 1.39 1.39 0 0 1-1 .4 1.39 1.39 0 0 1-1-.4z" fill="#fff"/><path d="M4.45 8.97a1.37 1.37 0 0 1-.4-1 1.38 1.38 0 0 1 .4-1 1.38 1.38 0 0 1 1-.4 1.39 1.39 0 0 1 1 .4 1.39 1.39 0 0 1 .4 1 1.38 1.38 0 0 1-.4 1 1.39 1.39 0 0 1-1 .4 1.38 1.38 0 0 1-1-.4zM4.45 17.07a1.38 1.38 0 0 1-.4-1 1.38 1.38 0 0 1 .4-1 1.38 1.38 0 0 1 1-.4 1.38 1.38 0 0 1 1 .4 1.39 1.39 0 0 1 .4 1 1.39 1.39 0 0 1-.4 1 1.39 1.39 0 0 1-1 .4 1.39 1.39 0 0 1-1-.4z" fill="#48c2c5"/><path d="M.4 13.02a1.38 1.38 0 0 1-.4-1 1.38 1.38 0 0 1 .4-1 1.38 1.38 0 0 1 1-.4 1.38 1.38 0 0 1 1 .4 1.38 1.38 0 0 1 .4 1 1.39 1.39 0 0 1-.4 1 1.39 1.39 0 0 1-1 .4 1.39 1.39 0 0 1-1-.4z" fill="#fff"/></svg>