<svg data-name="Signature Stacks" xmlns="http://www.w3.org/2000/svg" viewBox="0 0 95.67 29.86"><title>sig_logo_airbnb</title><path d="M50.42 7.5a1.94 1.94 0 1 1-1.94-1.94 1.94 1.94 0 0 1 1.94 1.94zm-8 3.92v.48a3.73 3.73 0 0 0-2.9-1.2 5.92 5.92 0 0 0 0 11.83 3.63 3.63 0 0 0 2.9-1.23v.51a.41.41 0 0 0 .42.42h2.42V10.99h-2.42a.43.43 0 0 0-.42.42zm0 7.2A3 3 0 0 1 40 19.85a3.23 3.23 0 1 1 0-6.46 3.05 3.05 0 0 1 2.42 1.23v4zM47.05 11h2.87v11.21h-2.87V10.97zm42.86-.3a3.73 3.73 0 0 0-2.9 1.2V5.59h-2.87v16.62h2.42a.43.43 0 0 0 .42-.42v-.51a3.7 3.7 0 0 0 2.9 1.23 5.92 5.92 0 0 0 0-11.83zm-.48 9.12a2.93 2.93 0 0 1-2.42-1.23v-4a3.24 3.24 0 0 1 2.42-1.23 3.23 3.23 0 1 1 0 6.46zm-6.78-4.24v6.69h-2.87V15.9c0-1.85-.6-2.6-2.21-2.6a3.21 3.21 0 0 0-2.33 1.11v7.8h-2.87V10.97h2.24a.43.43 0 0 1 .42.42v.48a4.12 4.12 0 0 1 3-1.2 4.65 4.65 0 0 1 3.14 1.08c1 .84 1.4 1.91 1.4 3.8zm-17.24-4.87a3.73 3.73 0 0 0-2.9 1.2V5.6h-2.9v16.61h2.42a.43.43 0 0 0 .42-.42v-.51a3.7 3.7 0 0 0 2.9 1.23 5.92 5.92 0 0 0 0-11.83zm-.48 9.12a2.93 2.93 0 0 1-2.42-1.23v-4a3.24 3.24 0 0 1 2.42-1.23 3.23 3.23 0 1 1 0 6.46zm-7.77-9.12a4.58 4.58 0 0 1 1.32.15v2.66a3.84 3.84 0 0 0-3.89.9v7.86h-2.87V11.01h2.42a.43.43 0 0 1 .42.42v.48a3.93 3.93 0 0 1 2.6-1.2zm-29.8 10.52c-.15-.36-.3-.75-.45-1.08-.24-.54-.48-1-.69-1.52-2.06-4.48-4.27-9-6.6-13.51l-.09-.18c-.24-.45-.48-.93-.72-1.4a8.59 8.59 0 0 0-1.08-1.64 4.83 4.83 0 0 0-3.8-1.85 5 5 0 0 0-3.83 1.79 10.31 10.31 0 0 0-1.08 1.64c-.24.48-.48 1-.72 1.4l-.09.18c-2.3 4.48-4.54 9-6.6 13.51v.06c-.21.48-.45 1-.69 1.52q-.22.49-.45 1.08a6.71 6.71 0 0 0-.36 3.23 6.35 6.35 0 0 0 3.89 5 6.14 6.14 0 0 0 2.42.48 6.79 6.79 0 0 0 .78-.06 7.89 7.89 0 0 0 3-1 15.13 15.13 0 0 0 3.71-3.11 15.7 15.7 0 0 0 3.71 3.11 7.89 7.89 0 0 0 3 1 6.8 6.8 0 0 0 .78.06 6 6 0 0 0 2.42-.48 6.34 6.34 0 0 0 3.89-5 5.65 5.65 0 0 0-.27-3.2zm-13.48 1.55a14.74 14.74 0 0 1-3-5.56 4.82 4.82 0 0 1-.09-1.82 2.9 2.9 0 0 1 .48-1.26 3.17 3.17 0 0 1 2.63-1.31 3.06 3.06 0 0 1 2.63 1.31 2.9 2.9 0 0 1 .48 1.26 4.8 4.8 0 0 1-.09 1.82 15.19 15.19 0 0 1-3 5.56zm11.92 1.4a4.44 4.44 0 0 1-2.72 3.5 4.52 4.52 0 0 1-2.27.3 5.88 5.88 0 0 1-2.27-.78 14 14 0 0 1-3.41-2.9 16.85 16.85 0 0 0 3.62-6.6 7.49 7.49 0 0 0 .15-2.54 4.85 4.85 0 0 0-.81-2 5 5 0 0 0-4.21-2.12 5.11 5.11 0 0 0-4.21 2.12 4.85 4.85 0 0 0-.81 2 6.21 6.21 0 0 0 .15 2.54 17.34 17.34 0 0 0 3.62 6.63 13.43 13.43 0 0 1-3.41 2.9 5.88 5.88 0 0 1-2.27.78 4.78 4.78 0 0 1-2.27-.3 4.44 4.44 0 0 1-2.72-3.5 5 5 0 0 1 .27-2.33c.09-.3.24-.6.39-1s.45-1 .69-1.49v-.06c2.06-4.45 4.27-9 6.58-13.42l.09-.18c.24-.45.48-.93.72-1.37a6.56 6.56 0 0 1 .84-1.31 3.14 3.14 0 0 1 4.78 0 6.57 6.57 0 0 1 .84 1.31l.72 1.37.09.18c2.27 4.45 4.48 9 6.55 13.45.24.48.45 1 .69 1.49s.3.66.39 1a5 5 0 0 1 .21 2.3z" fill="#fff" fill-rule="evenodd"/></svg>