<svg xmlns="http://www.w3.org/2000/svg" viewBox="0 0 304.59 297.05"><defs><clipPath id="a" transform="translate(-1908.55 -7274.12)"><path fill="none" d="M2056 7448.26l-133.7-49.87v26.66l133.7 49.88 133.7-49.88v-26.66l-133.7 49.87z"/></clipPath><clipPath id="b" transform="translate(-1908.55 -7274.12)"><path fill="none" d="M2056 7501.63l-133.7-49.88v26.67l133.7 49.87 133.7-49.87v-26.67l-133.7 49.88z"/></clipPath></defs><title>sig_dropbox</title><g data-name="Signature Stacks" style="isolation:isolate"><path fill="#ffcd05" d="M147.45 200.78l-133.7-49.87v26.66l133.7 49.88 133.7-49.88V150.9l-133.7 49.88z"/><path fill="#ffcd05" opacity=".45" style="mix-blend-mode:multiply" d="M147.45 200.78v26.67l133.7-49.88V150.9l-133.7 49.88z"/><path fill="#feea98" opacity=".65" style="mix-blend-mode:screen" d="M26.4 160.58l-7.49-2.77v16.96l7.49 2.78v-16.97z"/><path fill="#f7aa40" d="M147.45 254.22l-133.7-49.88v42.84l133.7 49.87 133.7-49.87v-42.84l-133.7 49.88z"/><path fill="#f7aa40" opacity=".45" style="mix-blend-mode:multiply" d="M147.45 254.22v42.83l133.7-49.87v-42.84l-133.7 49.88z"/><path fill="#536e32" d="M147.45 174.15l-133.7-49.88v26.67l133.7 49.87 133.7-49.87v-26.67l-133.7 49.88z"/><path fill="#536e32" opacity=".45" style="mix-blend-mode:multiply" d="M147.45 174.14v26.67l133.7-49.87v-26.67l-133.7 49.88v-.01z"/><g clip-path="url(#a)" fill="#536e32" fill-rule="evenodd" opacity=".35" style="mix-blend-mode:multiply"><path d="M139.98 175.25c-1.45-.52-3.55-.68-4.11-1.69 1.08-1.79 5.58-1.33 4.11 1.69zM113.28 162.81c-.28 1.17 1.53.55 1.55-.07 1 1.53-1 3.87-2.16 4-2.12-.28-2.41-1.57-3.36-2.5l1.35-4.71c3.22-2.11 5.42-1.52 2.62 3.28zM76.03 143.17c-.06 2.54-1 5.57-1.36 8.28-5.96.72-3.41-11.27 1.36-8.28zM94.92 175.36c3.07 1.92-.57 6.56-4.32 4.37.58-3.02 3.42-1.94 4.32-4.37zM59.45 143.57c-3.72.2-5.12 4.6-7.29 7.6-6.56-3.29 3.77-13.63 7.29-7.6zM97.56 153.78c-1.78 3-5.3 2.83-7.89 4.37.19-3.15 4.16-5.27 7.89-4.37zM126.45 173.88c-1.09 3-2.13 6.18-5.53 5 1.06-1.91 3.83-5.05.82-6.4 1.06-2.36 4.38-.02 4.71 1.4zM79.35 169.01c-.76 5.44-8 11.17-9.1 5 4.28 1 5.09-7.83 9.1-5zM106.58 186.65c1.27-1.29 3.61-3.65 3.17-5.72-.87-1.24-3.61-1.43-3.09-3.44 7.56-2.73 7.21 10.92-.08 9.16zM59.84 164.15l.55 1.36-5 2c.26 1.16 2-1.09 1.92.81-1.57 1.66-4.8 2.65-6 .85-1.69-4.81 5.54-5.78 8.53-5.02zM61.73 153c2.25.47 2.4 2.1 3.09 3.44-2.01 2.62-4.3-.81-3.09-3.44zM75.45 163.98c-2.23.82-3.62-.34-5.19-1.07-.36-.91 1-1.08.17-2.19 2.34-.89 6.46.82 5.02 3.26zM35.45 130.53c4.89 2.72 0 12-4.93 8.28 3.52-.71 4.12-3.84 4.93-8.28zM24.88 140.24c-1.37.38-3.17 0-4 1.41-1 1.86-.16 2.73.47 3.71-8.99 3.52-2.21-12.78 3.53-5.12zM36.23 150.35c-1.18 2.17-3.67 2-4.45 4.84.81 2.4 4.65.59 5.66 1.63-1.08 5.1-6.63 3.86-9 1-.2-5.02 3.4-8.51 7.79-7.47zM134.07 183.48c9.37 1.77-.27 19-2.91 8.35.3-1.67 2.14.89 3.23-.6 1.26-3.35.06-5.35-.32-7.75zM97.66 164.68c-.38 2.37-5.22.69-7.64 2-.34.48 0 1.24-1 1.46a5.3 5.3 0 0 0 3.38 1.81c-1.73 2-5.45 1-7-.33-1.59-7.85 8.25-6.25 12.26-4.94zM248.69 159.27c-1.95 1.63-4.84 2.93-7.12 4.44-4.47-4.02 6.23-10 7.12-4.44zM223.45 161.96c1.36 1.72 0 2.47.13 3.73-2.21-.3-5.33 1-6.84 1.59-1.48-4.01 3.56-5.52 6.71-5.32zM254.29 141.01c1 3.07 2.1 6.19-1.29 7.37-.33-2.16-.06-6.34-3.27-5.56-.61-2.55 3.44-2.73 4.56-1.81zM198.51 157.42c-2.5-.22-4.83-.9-7.44-.83.48-4.92 12.52-3.71 7.44.83zM222.3 152.88c.21-1.8.62-5.1-1-6.47-1.44-.45-3.74 1.08-4.55-.83 4.33-6.7 12.4 4.3 5.55 7.3zM177.08 173.17c-3.08 1.73-4.3-1.7-7-1 1.25-3.62 7.37-2.83 7 1zM228.17 155.54c2.07-1 3.19.19 4.55.83.01 3.31-3.9 1.99-4.55-.83zM164.45 190.88c-2.81 1.67-4.25-.47-6.34-.81-.42-3.49 5.77-2.96 6.34.81zM157.28 171.09c6.13-1.53 11.07 9.77 3.8 12.21.19-2.71-.33-8.54-3.8-12.21zM204.45 164.94c-2.12-2.48 2.66-7.43 5.21-5.28.53 3.13-3.49 3.68-5.21 5.28zM175.81 188.57c-1.62-5 7.16-10.69 10.11-5.27-3.23 2.75-6.95 2.03-10.11 5.27zM209.72 169.04c1 2.81-1 4.35-1.65 6.46-4.44.03-2.39-6.98 1.65-6.46zM195.84 172.66c-2.12 1.12-3.42 0-5.51 1-1.06.56.6 1.51 1.07 1.12-.77 1.4-3.86.53-5-.34-2.43-6.11 9.61-7.28 9.44-1.78zM276.01 134.29c-2.2 1.27-3.46-3.67-2.74-4.67 2.44-.81 4.09 2.99 2.74 4.67zM268.45 153.17c-3.14.44-7.19-.6-8.27-2.61-.32-.85 1.37-1 1.36-1.72 2.4 1.04 9.21-.1 6.91 4.33zM274.04 143.7c3.61-.36 3.57 5.54-.74 6.1-1.4-2.74 1.51-3.63.74-6.1zM243.91 144.69c-3.17 1-6.33 1.9-8.09-1.07.83-.19.67-.74.47-1.31 3.25-1.01 7.16-1.43 7.62 2.38zM263.88 131.3c-.37 2.48-1.2 4.77-1.29 7.37-4.87-.79-2.89-12.72 1.29-7.37z"/></g><path d="M121.9 180.17h-5.62l-1.42 3.62h-1.08l4.67-11.91h1.22l4.7 11.88h-1.08zm-.38-1l-1.94-5-.47-1.37-.43 1.31-2 5h4.86zM138.01 188.76h-1v-8.53l.11-2.38-4.25 10.91h-.92l-4.23-10.91.11 2.38v8.53h-1v-11.88h1.55l3.37 8.59.65 2.09.67-2.07 3.38-8.61h1.57v11.88zM147.89 189.88h-5.62l-1.42 3.62h-1.08l4.72-11.88h1.22l4.7 11.88h-1.08zm-.38-1l-1.94-5-.47-1.37-.43 1.31-2 5h4.86zM161.5 189.88v1h-9.22v-.92l7.72-10h-7.55v-1h8.79v.92l-7.74 10h8zM174.7 180.3c0 3.76-2.11 6.12-5.47 6.12s-5.47-2.36-5.47-6.12 2.11-6.12 5.47-6.12 5.47 2.36 5.47 6.12zm-9.88 0c0 3.2 1.69 5.17 4.41 5.17s4.41-2 4.41-5.17-1.69-5.17-4.41-5.17-4.42 1.97-4.42 5.17zM187.1 181.29h-1.28l-6-9-1-1.75.05 1.6v9.17h-1v-11.88h1.28l6 9 1 1.78-.05-1.6v-9.17h1v11.88z" fill="#fff"/><path d="M130.09 212.44h-1v-8.56l.11-2.38-4.25 10.91h-.92l-4.23-10.91.11 2.38v8.53h-1v-11.88h1.54l3.37 8.59.65 2.09.67-2.07 3.35-8.61h1.57v11.88zM138.35 212.78v4.63h-1v-4.63l-4.23-7.26h1.22l3.51 6.19 3.53-6.19h1.21zM152.91 211.18l-.88.7a3.35 3.35 0 0 0-3.6-2.36c-2.09 0-3.29 1-3.29 2.36s.85 1.91 3.66 2.4c3.15.52 4.27 1.48 4.27 3.26 0 2-1.8 3.28-4.48 3.28-2.5 0-4.27-1.06-4.93-2.79l.88-.7c.52 1.64 2 2.54 4.07 2.54s3.4-.81 3.4-2.27c0-1.19-.86-1.87-3.51-2.32-3.29-.56-4.43-1.5-4.43-3.28s1.64-3.42 4.36-3.42a4.48 4.48 0 0 1 4.48 2.6zM166.98 217.42l.36.94a3.86 3.86 0 0 1-2.41.76 3.21 3.21 0 0 1-3.44-3.35c-3.11-.2-5-2.5-5-6.1 0-3.76 2.11-6.12 5.47-6.12s5.47 2.36 5.47 6.12c0 3.58-1.91 5.89-5 6.1a2.24 2.24 0 0 0 2.54 2.32 2.92 2.92 0 0 0 2.01-.67zm-5.06-2.59c2.72 0 4.41-2 4.41-5.17s-1.69-5.17-4.41-5.17-4.41 2-4.41 5.17 1.69 5.17 4.41 5.17zM179.45 209.88v1h-8.07V199h1v10.88h7z" fill="#231f20"/><path fill="#51271a" d="M147.45 227.51l-133.7-49.88v26.67l133.7 49.88 133.7-49.88v-26.67l-133.7 49.88z"/><path fill="#51271a" opacity=".45" style="mix-blend-mode:multiply" d="M147.45 227.51v26.67l133.7-49.88v-26.67l-133.7 49.88z"/><g clip-path="url(#b)" opacity=".45" style="mix-blend-mode:multiply"><path d="M304.58 179.4l-13.19-11.67 3.26-2.88a10.5 10.5 0 0 0-1.35-.1h-2.18l-1.55 1.37-1.55-1.37h-3.64l3.37 3-13.49 11.94-13.49-11.94 3.37-3h-3.69l-1.55 1.37-1.55-1.37h-3.64l3.37 3-13.49 11.94-13.49-11.94 3.37-3h-3.64l-1.55 1.37-1.55-1.37h-3.64l3.37 3-13.49 11.94-13.49-11.94 3.37-3h-3.64l-1.55 1.37-1.55-1.37h-3.64l3.37 3-13.49 11.94-13.49-11.94 3.37-3h-3.64l-1.55 1.37-1.55-1.37h-2a10.57 10.57 0 0 0-1.53.12l3.23 2.85-13 11.48v.17l-13.17-11.65 3.26-2.88a10.5 10.5 0 0 0-1.35-.1h-2.18l-1.55 1.37-1.55-1.37h-3.64l3.37 3-13.49 11.94-13.44-11.95 3.37-3h-3.64l-1.55 1.37-1.55-1.37h-3.63l3.37 3-13.49 11.94-13.49-11.94 3.37-3h-3.64l-1.55 1.37-1.55-1.37h-3.64l3.37 3-13.49 11.94-13.49-11.94 3.37-3h-3.64l-1.55 1.37-1.55-1.37h-3.64l3.37 3-13.49 11.94-13.49-11.94 3.37-3h-3.64l-1.55 1.37-1.55-1.37h-2a10.57 10.57 0 0 0-1.53.12l3.23 2.85-13 11.48v4.14l9.76 8.64 3.22 2.85-6.28 5.56-6.7 5.93v4.14l9.77 8.65 3.21 2.84-6.28 5.55-6.7 5.93v4.14l13 11.48-6.29 5.56a10.62 10.62 0 0 0 2.66.86l5.45-4.82 5.66 5h3.64l-7.48-6.62 13.49-11.94 13.49 11.94-7.48 6.62h3.64l5.66-5 5.66 5h3.64l-7.48-6.62 13.49-11.94 13.49 11.94-7.48 6.62h3.64l5.66-5 5.66 5h3.64l-7.48-6.62 13.49-11.94 13.49 11.94-7.48 6.62h3.64l5.66-5 5.66 5h3.64l-7.48-6.62 13.49-11.94 13.49 11.94-7.48 6.62h3.64l5.66-5 5.48 4.85a10.75 10.75 0 0 0 2.71-.83l-6.37-5.63 13.17-11.65v.17l13 11.48-6.29 5.56a10.62 10.62 0 0 0 2.66.86l5.45-4.82 5.66 5h3.64l-7.48-6.62 13.49-11.94L195.84 249l-7.48 6.62H192l5.66-5 5.66 5h3.64l-7.48-6.62 13.49-11.94L226.46 249l-7.48 6.62h3.64l5.66-5 5.66 5h3.64L230.1 249l13.49-11.94L257.08 249l-7.48 6.62h3.64l5.66-5 5.66 5h3.64l-7.48-6.62 13.49-11.94L287.7 249l-7.48 6.62h3.64l5.66-5 5.48 4.85a10.75 10.75 0 0 0 2.71-.83l-6.37-5.63 13.19-11.67v-3.76l-6.84-6.05-6.35-5.62 3.25-2.87 10-8.81v-3.76l-6.83-6-6.36-5.63 3.25-2.88 9.94-8.8v-3.76zm-20.13 12.48l3.36 3-7.47 6.61-6 5.33-6-5.33-7.47-6.61 3.36-3 10.14-9zM259 220.35l-13.55-11.96 13.49-11.94 13.49 11.94zm0-51l13.45 11.93-13.49 11.94-13.51-11.94zm-5.17 22.53l3.36 3-7.47 6.61-6 5.33-6-5.33-7.47-6.61 3.36-3 10.14-9zm-25.45 28.47l-13.49-11.94 13.49-11.94 13.49 11.94zm0-51l13.49 11.94-13.49 11.94-13.49-11.94zm-5.23 22.53l3.36 3-7.47 6.61-6 5.33-6-5.33-7.47-6.61 3.36-3 10.14-9zm-25.45 28.47l-13.49-11.94 13.49-11.94 13.49 11.94zm0-51l13.49 11.94-13.49 11.94-13.49-11.94zm-5.17 22.53l3.36 3-7.47 6.61-6 5.33-6-5.33-7.47-6.61 3.36-3 10.14-9zm-25.45 28.47l-13.49-11.94 13.49-11.94 13.49 11.94zm0-51l13.49 11.94-13.49 11.94-13.49-11.94zm-5 22.65l3.22 2.85-6.28 5.56-6.7 5.93v.17l-6.81-6-6.36-5.63 3.25-2.88 9.92-8.78v.17zm-24.75 28.35l-13.49-11.94 13.49-11.94 13.49 11.94zm0-51l13.49 11.94-13.49 11.94-13.49-11.94zm-5.17 22.53l3.36 3-7.47 6.61-6 5.33-6-5.33-7.6-6.61 3.36-3 10.14-9zm-25.45 28.47l-13.49-11.94 13.49-11.94 13.49 11.94zm0-51l13.49 11.94-13.49 11.94-13.49-11.94zm-5.26 22.53l3.36 3-7.47 6.61-6 5.33-6-5.33-7.47-6.61 3.36-3 10.14-9zM76 220.35l-13.49-11.94L76 196.47l13.49 11.94zm0-51l13.49 11.94L76 193.23l-13.49-11.94zm-5.17 22.53l3.36 3-7.47 6.61-6 5.33-6-5.33-7.47-6.61 3.36-3 10.14-9zm-25.38 28.46L31.96 208.4l13.49-11.94 13.49 11.94zm0-51l13.49 11.94-13.49 11.94-13.49-11.94zm-5.2 22.54l3.36 3-7.47 6.61-6 5.33-6-5.33-7.47-6.61 3.36-3 10.14-9zM14.8 169.35l13.49 11.94-13.49 11.94-13.49-11.94zm0 27.12l13.49 11.94-13.49 11.94-13.49-11.94zm0 51L1.31 235.53l13.49-11.94 13.49 11.94zm9.28-18.89l-7.47-6.61 3.35-3 10.15-9 10.15 9 3.35 3-7.47 6.61-6 5.34zm21.35 18.89l-13.49-11.94 13.51-11.95 13.49 11.94zm9.28-18.89l-7.47-6.61 3.35-3 10.15-9 10.15 9 3.36 3-7.47 6.61-6 5.34zm21.35 18.89l-13.49-11.94 13.49-11.94 13.49 11.94zm9.28-18.89l-7.47-6.61 3.35-3 10.15-9 10.15 9 3.35 3-7.47 6.61-6 5.34zm21.35 18.89L93.2 235.53l13.49-11.94 13.49 11.94zm9.28-18.89l-7.47-6.61 3.35-3 10.15-9 10.15 9 3.35 3-7.47 6.61-6 5.34zm21.35 18.89l-13.49-11.94 13.49-11.94 13.49 11.94zm15-13.84l-6.82-6-6.35-5.62 3.25-2.87 9.93-8.79v.17l9.77 8.65 3.21 2.84-6.28 5.55-6.7 5.93v.17zm14.79 13.84l-13.49-11.94 13.49-11.94 13.49 11.94zm9.28-18.89l-7.47-6.61 3.35-3 10.15-9 10.15 9 3.35 3-7.47 6.61-6 5.34zm21.35 18.89l-13.49-11.94 13.49-11.94 13.49 11.94zm9.28-18.89l-7.47-6.61 3.35-3 10.15-9 10.15 9 3.36 3-7.47 6.61-6 5.34zm21.35 18.89l-13.49-11.94 13.49-11.94 13.49 11.94zm9.28-18.89l-7.47-6.61 3.35-3 10.15-9 10.15 9 3.35 3-7.47 6.61-6 5.34zM259 247.47l-13.55-11.95 13.49-11.94 13.49 11.94zm9.28-18.89l-7.47-6.61 3.35-3 10.15-9 10.15 9 3.35 3-7.47 6.61-6 5.34zm21.35 18.89l-13.49-11.94 13.49-11.94 13.49 11.94zm0-27.12l-13.49-11.94 13.49-11.94 13.49 11.94zm0-27.12l-13.49-11.94 13.49-11.94 13.49 11.94z" fill="#5d3a07"/></g><path d="M125.1 229.31c0 2.18-1.57 3.51-4 3.51h-3v4.86h-1V225.8h4c2.43 0 4 1.33 4 3.51zm-1.06 0c0-1.64-1-2.56-3.08-2.56h-2.84v5.13h2.84c2.03 0 3.07-.93 3.07-2.57zM132.45 237.32v4.63h-1v-4.63l-4.23-7.26h1.23l3.51 6.19 3.53-6.19h1.21zM146.99 234.88h-4.29v10.93h-1v-10.93h-4.3v-1h9.61v1zM159.45 233.09v11.88h-1v-5.56h-7.15v5.56h-1v-11.88h1v5.37h7.15v-5.37h1zM173.27 234.2c0 3.76-2.11 6.12-5.47 6.12s-5.47-2.36-5.47-6.12 2.11-6.12 5.47-6.12 5.47 2.36 5.47 6.12zm-9.88 0c0 3.2 1.69 5.17 4.41 5.17s4.41-2 4.41-5.17-1.69-5.17-4.41-5.17-4.42 1.96-4.42 5.17zM185.34 235.31h-1.28l-6-9-1-1.75.05 1.6v9.17h-1v-11.88h1.34l6 9 1 1.78-.05-1.6v-9.17h1v11.88z" fill="#fff"/><path fill="#f7aa40" d="M281.1 49.85L147.45 0 13.8 49.85l-.05-.01v47.83l133.7 49.88 133.7-49.88V49.83l-.05.02z"/><path fill="#f7aa40" opacity=".45" style="mix-blend-mode:multiply" d="M281.1 49.85L147.45 0v147.55l133.7-49.88V49.83l-.05.02z"/><path d="M160.36 51.88c-1.54-1.17-4.35-6-3.68-6.87s6.06.54 7.6 1.72a3.25 3.25 0 1 1-3.92 5.15zM180.77 51.2c-.09-1.93 1.8-7.18 2.91-7.23s3.47 5 3.56 6.93a3.25 3.25 0 1 1-6.47.3zM157.75 78.09c-.09-1.93 1.8-7.18 2.91-7.23s3.47 5 3.56 6.93a3.25 3.25 0 1 1-6.47.3zM158.34 21.1c1.78-.76 7.36-.82 7.79.2s-3.47 5-5.25 5.76a3.25 3.25 0 1 1-2.54-5.96zM180.1 33.28c-1.34 1.4-6.45 3.64-7.24 2.88s1.23-6 2.57-7.36a3.25 3.25 0 1 1 4.67 4.48zM216.88 58.88c-1.34 1.4-6.45 3.64-7.24 2.88s1.23-6 2.57-7.36a3.25 3.25 0 1 1 4.67 4.48zM202.22 36.66c1.23-1.49 6.14-4.13 7-3.43s-.77 6-2 7.53a3.25 3.25 0 1 1-5-4.1zM238.17 52.51c-1.62-1.06-4.75-5.68-4.14-6.6s6.09.13 7.7 1.19a3.25 3.25 0 1 1-3.56 5.41zM186.16 70.73c-1.62-1.06-4.75-5.68-4.14-6.6s6.09.13 7.7 1.19a3.25 3.25 0 1 1-3.56 5.41zM132.5 51.88c1.54-1.17 4.35-6 3.68-6.87s-6.06.54-7.6 1.72a3.25 3.25 0 1 0 3.92 5.15zM112.1 51.2c.09-1.93-1.8-7.18-2.91-7.23s-3.47 5-3.56 6.93a3.25 3.25 0 1 0 6.47.3zM135.11 78.09c.09-1.93-1.8-7.18-2.91-7.23s-3.47 5-3.56 6.93a3.25 3.25 0 1 0 6.47.3zM134.53 21.1c-1.78-.76-7.36-.82-7.79.2s3.47 5 5.25 5.76a3.25 3.25 0 1 0 2.54-5.96zM112.76 33.28c1.34 1.4 6.45 3.64 7.24 2.88s-1.23-6-2.57-7.36a3.25 3.25 0 1 0-4.67 4.48zM75.99 58.88c1.34 1.4 6.45 3.64 7.24 2.88s-1.23-6-2.57-7.36a3.25 3.25 0 1 0-4.67 4.48zM90.65 36.66c-1.23-1.49-6.14-4.13-7-3.43s.77 6 2 7.53a3.25 3.25 0 1 0 5-4.1zM54.7 52.51c1.62-1.06 4.75-5.68 4.14-6.6s-6.09.13-7.7 1.19a3.25 3.25 0 1 0 3.56 5.41zM106.7 70.73c1.62-1.06 4.75-5.68 4.14-6.6s-6.09.13-7.7 1.19a3.25 3.25 0 1 0 3.56 5.41z" fill="#f5edd3"/><path fill="#f7aa40" d="M147.45 147.55L13.75 97.67V49.83l133.7 49.88v47.84zM147.45 99.71v47.84l133.7-49.88V49.84l-133.7 49.87z" opacity=".45" style="mix-blend-mode:multiply"/><path fill="#f9f6e5" d="M147.45 147.58L13.75 97.71v26.67l133.7 49.87 133.7-49.87V97.71l-133.7 49.87z"/><path fill="#f9f6e5" style="mix-blend-mode:multiply" d="M147.45 147.58v26.67l133.7-49.88V97.71l-133.7 49.87z"/><path d="M266.28 128.04c0 3.05 0 5.45-.13 6.74s-.47 3.19-.6 4c-.18 1.16-.81 3-.13 4.47 1.08 2.34 4 2.37 4.94 0 .52-1.31-.1-3.28-.34-4.8-.12-.79-.43-2.42-.55-3.59-.14-1.33-.21-3.54-.21-6.81M259.05 130.04c0 1.83 0 3.26-.08 4s-.28 1.91-.36 2.4a4.69 4.69 0 0 0-.08 2.67 1.56 1.56 0 0 0 3 0c.31-.79-.06-2-.2-2.87-.07-.47-.25-1.45-.33-2.14s-.13-2.12-.13-4.07" fill="#f6efcf"/><path d="M129.45 159.39h-1.28l-6-9-1-1.75.05 1.6v9.17h-1v-11.88h1.28l6 9 1 1.78-.05-1.6v-9.17h1v11.88zM142.95 158.4v5.85h-.79v-1.94a4.11 4.11 0 0 1-4 2.12c-3.31 0-5.4-2.36-5.4-6.12s2.18-6.12 5.44-6.12c2.41 0 3.91.94 4.7 2.86l-.92.5a3.61 3.61 0 0 0-3.78-2.41c-2.61 0-4.37 2-4.37 5.17s1.6 5.17 4.38 5.17c2.56 0 3.85-1.64 3.85-3.51v-.61h-4v-1h4.92zM148.01 167.79h-1v-11.91h1v11.88zM161.75 164.18h-1.3l-6-9-1-1.75.05 1.6v9.17h-1v-11.88h1.28l6 9 1 1.78-.05-1.6v-9.17h1v11.88zM172.57 159.73l-3.53-5.28-3.57 5.28h-1.21l4.23-6.09-3.85-5.8h1.22l3.29 5 3.33-5h1.13l-3.92 5.76 4.05 6.12h-1.19z" fill="#231f20"/></g></svg>