<svg id="Layer_1" xmlns="http://www.w3.org/2000/svg" viewBox="0 0 430.907 181.407"><style>.st0{fill:#f7aa40}.st0,.st1{fill-rule:evenodd;clip-rule:evenodd}.st1{fill:#da8d2c}.st2{fill:#f5edd3}</style><g id="Top_Bun_1_"><path class="st0" d="M0 162.112c0 8.37 8.178 19.295 15.005 19.295H415.9c10.007 0 15.008-5 15.008-15.008 0-83.532-71.75-141.1-148.736-159.094-43.732-10.22-103.29-10.234-146.07 3.24C65.288 32.852 0 93.015 0 162.11z"/><path class="st1" d="M282.17 7.29C262.2 2.625 238.924.115 215.455.018v181.375H415.9c10.007 0 15.008-5 15.008-15.008 0-83.53-71.752-141.1-148.737-159.093z"/><path class="st2" d="M238.182 104.492c-2.746-2.09-7.77-10.696-6.576-12.267 1.195-1.572 10.83.973 13.578 3.064 2.748 2.09 3.41 5.844 1.475 8.386-1.936 2.544-5.728 2.907-8.478.816zM292.5 113.952c-.163-3.45 3.212-12.825 5.19-12.916 1.97-.09 6.2 8.93 6.36 12.38.16 3.45-2.294 6.367-5.49 6.514-3.188.148-5.9-2.528-6.06-5.978zM251.398 151.266c-.163-3.45 3.212-12.824 5.19-12.916 1.97-.09 6.2 8.93 6.36 12.38.16 3.45-2.294 6.367-5.49 6.514-3.188.148-5.9-2.527-6.06-5.978zM234.57 36.963c3.175-1.354 13.14-1.46 13.915.355.773 1.817-6.205 8.93-9.384 10.284-3.175 1.352-6.766.07-8.016-2.868-1.254-2.94.31-6.418 3.485-7.77zM390.34 142.718c3.176-1.354 13.14-1.46 13.916.355.773 1.817-6.205 8.93-9.384 10.284-3.176 1.352-6.767.07-8.017-2.868-1.253-2.942.31-6.42 3.485-7.772zM291.31 71.235c-2.39 2.492-11.512 6.505-12.936 5.138-1.425-1.367 2.202-10.648 4.584-13.14 2.394-2.495 6.198-2.724 8.505-.515 2.308 2.21 2.238 6.025-.153 8.517zM356.99 122.245c-2.39 2.492-11.51 6.505-12.935 5.138-1.425-1.367 2.202-10.648 4.584-13.14 2.393-2.495 6.197-2.724 8.504-.515 2.308 2.21 2.237 6.025-.153 8.517zM330.806 61.18c2.19-2.67 10.97-7.377 12.5-6.122 1.527 1.253-1.374 10.787-3.56 13.455-2.192 2.672-5.968 3.195-8.436 1.168-2.474-2.023-2.7-5.83-.504-8.5zM377.132 100.215c-2.887-1.897-8.49-10.136-7.402-11.786 1.086-1.652 10.873.228 13.755 2.12 2.885 1.9 3.8 5.604 2.046 8.27-1.753 2.67-5.513 3.295-8.398 1.395zM320.006 159.555c-2.887-1.897-8.49-10.136-7.402-11.786 1.085-1.652 10.873.228 13.755 2.12 2.884 1.9 3.8 5.604 2.045 8.27-1.754 2.67-5.513 3.295-8.4 1.395zM188.435 104.492c2.746-2.09 7.77-10.696 6.576-12.267-1.194-1.572-10.828.973-13.577 3.064-2.748 2.09-3.41 5.844-1.475 8.386 1.935 2.544 5.728 2.907 8.477.816zM134.118 113.952c.163-3.45-3.212-12.825-5.19-12.916-1.97-.09-6.2 8.93-6.36 12.38-.16 3.45 2.294 6.367 5.49 6.514 3.188.148 5.9-2.528 6.06-5.978zM175.22 151.266c.162-3.45-3.213-12.824-5.19-12.916-1.972-.09-6.202 8.93-6.36 12.38-.16 3.45 2.293 6.367 5.488 6.514 3.19.148 5.902-2.527 6.06-5.978zM192.05 36.963c-3.177-1.354-13.142-1.46-13.917.355-.773 1.817 6.205 8.93 9.384 10.284 3.176 1.352 6.767.07 8.017-2.868 1.253-2.94-.31-6.418-3.485-7.77zM36.277 142.718c-3.176-1.354-13.14-1.46-13.916.355-.772 1.817 6.206 8.93 9.385 10.284 3.176 1.352 6.767.07 8.017-2.868 1.254-2.942-.31-6.42-3.485-7.772zM135.307 71.235c2.39 2.492 11.512 6.505 12.936 5.138 1.425-1.367-2.202-10.648-4.584-13.14-2.395-2.495-6.2-2.724-8.506-.515-2.308 2.21-2.237 6.025.153 8.517zM69.627 122.245c2.39 2.492 11.512 6.505 12.936 5.138 1.425-1.367-2.202-10.648-4.584-13.14-2.395-2.495-6.2-2.724-8.506-.515-2.308 2.21-2.238 6.025.153 8.517zM95.81 61.18c-2.19-2.67-10.97-7.377-12.5-6.122-1.526 1.253 1.375 10.787 3.56 13.455 2.193 2.672 5.97 3.195 8.437 1.168 2.474-2.023 2.7-5.83.504-8.5zM49.486 100.215c2.887-1.897 8.49-10.136 7.402-11.786-1.085-1.652-10.873.228-13.755 2.12-2.885 1.9-3.8 5.604-2.046 8.27 1.754 2.67 5.513 3.295 8.4 1.395zM106.61 159.555c2.888-1.897 8.49-10.136 7.403-11.786-1.085-1.652-10.873.228-13.755 2.12-2.885 1.9-3.8 5.604-2.046 8.27 1.754 2.67 5.514 3.295 8.4 1.395z"/></g></svg>